<mxfile host="65bd71144e">
    <diagram id="gRcMLbQh8Yo8negAz6j7" name="Page-1">
        <mxGraphModel dx="842" dy="578" grid="1" gridSize="10" guides="1" tooltips="1" connect="1" arrows="1" fold="1" page="1" pageScale="1" pageWidth="850" pageHeight="1100" background="none" math="0" shadow="0">
            <root>
                <mxCell id="0"/>
                <mxCell id="1" parent="0"/>
                <mxCell id="33" value="" style="points=[[0,0],[0.25,0],[0.5,0],[0.75,0],[1,0],[1,0.25],[1,0.5],[1,0.75],[1,1],[0.75,1],[0.5,1],[0.25,1],[0,1],[0,0.75],[0,0.5],[0,0.25]];outlineConnect=0;html=1;whiteSpace=wrap;fontSize=12;fontStyle=0;container=1;pointerEvents=0;collapsible=0;recursiveResize=0;shape=mxgraph.aws4.group;grIcon=mxgraph.aws4.group_aws_cloud_alt;verticalAlign=top;align=left;spacingLeft=30;dashed=0;fontColor=#000000;" parent="1" vertex="1">
                    <mxGeometry x="40" y="270" width="630" height="430" as="geometry"/>
                </mxCell>
                <mxCell id="57" value="" style="shape=image;verticalLabelPosition=bottom;labelBackgroundColor=none;verticalAlign=top;aspect=fixed;imageAspect=0;image=data:image/png,iVBORw0KGgoAAAANSUhEUgAAAW0AAAFtEAYAAACckedhAADf/UlEQVR42uydB1gVR/fGsVfKvShiQwWk2XsFO3YEBQvYRcCCqCC9WaN+amzRaKLGrljgomKJNRqNRmNJVb/8E2OM0RTjF3ub/11njluAgAYU5P35PJ5nuX1ndvbds++cMTEBAAAAAAAAAAAAAAAAAAAAAAAAAAAAAAAAAAAAAAAAAAAAAAAAAAAAAAAAAAAAAAAAAAAAAAAAAAAAAAAAAAAAAAAAAAAAAAAAAAAAAAAAAAAAAAAAAAAAAAAAAAAAAAAAAAAAAAAAAAAAAAAAAAAAAAAAAAAAAAAAAABQkClU6M1EAAAAAAAACoSQLlz4n2ORItmLWb0PhDgAAAAAAHirhHVWwrloUR6LFcs4Fi+evZjZ6+n9sxLmEN4AAAAAACBPCuvMBLVWSJMwLlGCx5IleSxVisfSpXksU0Ydy5bNOGqfR6+n96P3p8/TCnOtEM9KgAMAAAAAAPBahHVWgpqELglgEshmZjyam/Oo0/FoacljuXI8li+fvUjPp9fT+9H70+fR59P3oe+XXQEO4Q0AAAAAAF6rsKaMsVZQk9DV60kYN+1pPs3hVI0aCxxte41aMGzYKu+a709c+O67ayMd5oUf2rBh413HLlHXDxzYEulsFjv0q6+2G5wPx/veuJFS3flJosmjR7RNj9Pz6fX0fvT+9HlqYU7fh76fVoDT74HwBgAAAAAAuSqwsxLWpqY8Uia5fPmB75c/6X62Xr0lS+wXBqdFRJAgTpnq0jvR5MGDlBQXl8RExnI9is+jz6fvQ99PLcDp+9PvyUp4Q3ADAAAAAICXEtaUuc1KWFNm2MoqemmV73ztO3fe7ONkEp10+LBhuIt3osmzZ69NUL9kpO9H35e+P/0e9e/LSngj0w0AAAAAALIlsLUea7JWUMbXymp0UsXlPc60br0uwmFFpO2OHXldWGdXeNPvod+nFt70+2l/aD3eENwAAAAAABDYKkFIVggSjJS5pUmE5cq1Xm0aVc/JwWFNP8fik/Tr1qVMdD6fEPf4cX4V1llG8fvo99Lvp/2h3j+0v2j/wVoCAAAAAACB/RyyQlCZPAsLHq2sAltYH+/W281t6yrnSrHRly69tcI6i0i/n/YH7R/1/qL9R/sTghsAAAAAoIALbK01xNp6yt7q24d4DR68vbFzcHzQ7dsFVWBrI+0P2j+0v9T7j/YnBDcAAAAAQAEX2DTpr1Kl97+27zHuixkzUiycYxPinz6FwM4kiv1D+4v2n3p/QnADAAAAALylQjv7AnuJrVT2bvp0COlXi7T//p3gBgAAAAAA+VRgk4dYFtjTbWz2DOvs72+wdElInIwM9itXLRH7j/ZnxoI7ux5uAAAAAACQxwQ2RW2ZPqqKQZP2KlYc42bdrNeCbt2Smzrfj//7zh0I5pyJtD9p/9L+Vu9/bZUSai9YSQAAAAAA8qjQpswoLaRSqhSPtNR4hQpdv7M0NHVs3Hibu/OguMbXrkEg506k/Uv7m/a/uj2ofai9kNkGAAAAAMijAjszLzbVfbaxWV3O4euw+NRUCOLXE2l/0/5Xtwe82wAAAAAAeVRgZ2UVoXJzlSuPPV1xuaeJp2d+X8Exv644Sfuf2kPdPrCSAAAAAADkMaGtzWTTkuC0YiFZFWxtN3znGBP57ORJCOA3E2n/U3uo24fai9oPmW0AAAAAgDcstLWZbG1VkapV42ZVne1nGRQEwZs3IrUHtY+6vaj9MstsAwAAAACAXBbY2c1k29ltvuJUJTrl4kUI3bwRNx91Kh/9wUVG7aNuL2S2AQAAAADyiNCmahXk8aXMaJUqQxZWuNaxY/fuELh5Mw5OrrC1w+oeJtRe6vaj9kQ1EgAAAACA1ySwtZYRqlZhasqjlRWPdoUWfG/78ag/FptA2ObNuGCi7epRqxYHU3vxWKGQuj2pfTE5EgAAAAAgl4W21jJCdZh14vHKIjpd2viD48Koyt94Q9jmzbjxoOPsqKLfxPP2ct4p2u9XdXuWLqRub2S2AQAAAAByWWiTpaCM+Hs5Eav93KmbvnUjM/cowxAX74SnrAiEbR4t+zfIpU/CE1asww+6/zYs3Pl/vP2qHxfteUvdvsULQWgDAAAAAOSq0C4qYgmyGNzj0fobHmuumNG+usNwn3d+haDNH3FqSLXfhnwy80fefk4teKx4hEez30R7P1G3f2EIbQAAAACAfwcJqiIiFnvGY+m/edRd4rHqXB5rP1lY284/aPXGEhCy+SPOv25XPnDPJmEhqR/AY7XBPFoe4rHM7zwWfywEt6Z/IMMNAAAAAJBNCmkylySsSGiZXuHRagOP9uV5bHzn/XL2fccNPHgXQjZ/xCWf2hcPHnV4BW+/FrV4dNzKY8UoHs3P81jyrugPTH0BhkmSAAAAAABZCOt0kx41mewyN3jU7+HRphGPdWrw2KbzR5Y1LUJPXYLQzi8rRjrZhYY/vNPKNbX4h87fD53M27HBYh5tvxcXVIvVF1glxQVXMU0VGq2HG8IbAAAAABDWhdWCiapMkBe71CMeLb7mkTKdDkuqeBeZo0trczjmv2Wn9Lmw8d0tm2qOiOnFgiFk80fc8l1Nj5hhjK2san5u9PTH1/9T0qzsYOuPjtgtLxpm1aZJqLig6s5juWNCcAtvfimaLFlc3W8gvAEAAAAAga0R2FRNhOonU9UJi+s8WguriJ15fLOyq7ztx7+/rohFr3E9brivrGk+arQbY8neTtfjV0PA5pdI7UXtlzTO4oOJ8Yxt/1A3cNK467dnHTM97ndxTCUhuGcKwS2qkphTGcDS6n5D/QiCGwAAAAAFVli/yFwLgUR1sWnBEkvxuopfjQwp495hZfsz28rpQkJPH0vesU43OXI7Y5s3W8yc8IixFcPM+47aB6GdX4U2tR+1J7Xvvrn6OnF9GEvdrmMRc482H92pzFn3y21niAsv0T9oRUnqN9SPqF8h0w0AAACAt1ZYaxeaoVv9JUvyWLYsjxYWPJYvXz+4+G+2S2sW2vSbzmKi5+JLB9ZYWiQEP6pKwiszoU1WBAjZ/GUdyUpoH3LSf5Q4xhgfWvZMZI/KbGmt6xH602KTBidKVLGbZ29P/Ubdj6hfUT/TWky0/RPCGwAAAAD5RmBnZgmhW/1mZjxaWvJYseJ7j8yn+V8cMeJgactCCeN/Zkcm6S9Nvi8LrayE9qaBtmmR1SFg80uk9squ0Kb+8MkzS5MpjLGDP1paJZr8/DP1G+pH6n5F/QwWEwAAAADke2GtzVxrLSF0q79ChXG3yp7pMrN1692r9Mdieh06dPSopeXUqbKQelmhve7H6jZhP0LA5pe4fn31BmEjXl1oU3+hSP2I+hX1M3W/01pMMJkSAAAAAHlOWL+8JaTW1RKeVdvb2W0rptsUNmPBgqPWliumWj94oBVMJKQ+aan/Y0qMLLQ+9tK3jfuWsZ1BusVRDeXJczSZbo1z1WUTbCFg80uk9tJOhqT2pfam9qf+kJnQfhFFv6J+Rv2O+qG6X8JiAgAAAIA8I7Bf3hKy6HPzb/y7DRt2aJxl+0STn37KVCBlJrR/1+9IvMXYfiu9d7wfY7vq6DZGpTG25b7FkdAZjK3abv7uGHejYHu34pZxUyBg80uk9qL2o/ak9qX2pvbPttDWROp31A+pX6r7KSwmAAAAAHhjwjorS4hOx2OFCmOjSm7verRVqz1NdB/GtD9wILuCKNtC+7ZuX3QrxrYlWvwaNo+x1U/MPxt7gbGlNrqrAUcZM0xycU0sAiGbVyO1D7UXtR+1J7VvTgltbaR+Sf2U+q26H8NiAgAAAIAcF9YvbwmpuaHETBsbW9stHS1ahg6bN++Ti/pNU5bev/+qQkgrtA8b9McnhxqF1yV9YPwPjO2O0V2J6cBYcimd2aQljK3ralF43GCjcGtttn/kMsY23bH7JTIagjbPToIU7UPtRe1H7UntS+1N7Z9TQvtFPxP9lPot9WPq1+p+DosJAAAAAF5ZYP8LS0hNy/6JC65c+bfCJyuhfWCVPjphBGN7i+pLxHZnzNBX1znClrENSy1ahdxkbLmHeanAJMZWlqjcftxhCNo8axkR7UPtRe1H7UntS+2dW0I7ncVE9GNYTAAAAACQQ8I6+5aQMadKPu783xYtdpvqfo6O37cvp4VOZoI7s+ojqT/oxkW6pK8+sqS2/veAchC0eTVS+2irjVB7vmy1kdyK1M+p39NxoD4uYDEBAAAAIKyztISUKcOjbAlxOFXik2ola9RIMrOYFNpozpx/awnJca+2mDS39WOLr8NKM7a6mfmusR6MLb5lNtXf1CjgrtkvjwqGsM0rkdqD2ofai9ovpydB5lg/FP2ejgM6Lug4UR83dBzBYgIAAAAUoMx19i0hi5uYRo3YOWTIgTR910STH3983cLmpb3aZ3Q1wisxtv6ChVNIAGPLZpvdC6zJ2FKT8p8GNYDAzSuR2oPah9qL2u91ebP/baTjgo4TOm7UxxEsJgAAAMBbLKyzbwkZZV+qZseFzZuntddbRYfs2fOmhUw6oa2xkBwcoZ+bcJ2xvZ/pK8WeTW8hobrMC743azrsKWMbzG3jwhdD6L6pSPuf2oPaR2sZofak9tVaRvKK0NZGOm7oOKLjSn2cwWICAAAA5ENh/fKWECfj/9Ym1asnJVmkhhaZPfvIuddrCcmtcn/bO1o8nqRnbO1081vBl+SqFgufWJbwv4Gyf2+qjB/tf2oPah9qr9wu5/e6Ih1HdFzRcUbHnfo4hMUEAAAAyAeZ6+xbQhb8bHp0hPWgQQfn6wcnBP/wQ14XLi9bhSS1ss4vYgNjm362mDQhXJ5sR5nU1QurXZvYBwL4dUXa37T/qT2ofai93lSVkdyOdJzRcUfHofq4hMUEAAAAyEPCOvuWkICAUr06nW/WLO2yvmv0kLS0/CZUsluFhJbq1i5kQ5nT9wuZnQuoyti7HSymDKvN2JZ9DrtjOkEI51ak/Uv7m/Y/tYd2YRrtUutvqspIrltMxHFIxyUdp+rjFhYTAAAA4DUI65e3hFQ34beqN4+yuD3xwsyZR97Vfzyl3L17b4tQednM9gvP9k3z2NGfMLYowGzQiGJGAdhY9/dw4/O3fe50JG4ZhHFOxW3LnI7HRbHttH9pf9P+f+HJfssz2VlaTMRxSccpHbd0HKuPa1hMAAAAgFzIXGffErKwq5lueLif34EH+lkJY77//m0TJllNjqRMKHl809J0Z6IPySsNUnWLDyzNqwTVZWy+iVmloQmsfVzbcvX7Rfw0yagT3RO+ZcMhmF8xOrt0TviO9fT200e0frpz0tiPS5/scvLCxeWfmDsF7mKNXlQXEe1B7fPCk51JJvttFdrpqpiI45aOYzqu1cc5LCYAAADAvxDW2beEjAwptbnDqiZN0sro46J77dz5tguR7Ga2qVoFLXiyM0i3OKqhXKd5/remfwyL/6Vas/8Va1zz4+UOfH9O7jSmeyU7j6B9X0M4v1oMnlJpm2fx3UIIRqfxGLHNrWux0y6FFyUsP2X2U1C9n2dRe1D7UHsVlEx2ti0m4rim45yOe/U4AIsJAAAACGuTnLCE1DA+Yn28WrVNn+p0IVfeeeeIh/7slA/v3i2oQiTLaiSiDnPqPN3myK335oxPKc26v5dkX9TZuPetxozh+3XMzzwGj+Bx/EcTv6vs3qfDjuLJF51DEvo+6wEhnXFMvuY8MWHIs1Zhxyvv996cIvrpaHseAybwOCKJx+Hbi6437vc+/vvC15ZZ1Gvxxrq7G+htYr6455lfq4u8NouJOM7puKdxgMYF9TgBiwkAAABkrk1exhLy7nmz4cNODxhwYIt+ZaLJf/8LAZKFlaSZ/o/JUazQBx3NOwUN/LRuzUpF11WcPDqe788BYTz2W8RjX1ce+4sV/gZG8zhsg89/yo9wGzq/8ZZJTsdjR929AIEtJjl+6HQ2dvrd5f16l/+qzZa57nx/+d0U+7Mvj16LefQQgttjOo+eT3j0cXdYUvTLSjOCTFfsMp822uRY5CdHLC2nTHkGoZ2VxUSMAzQu0DihHjdgMQEAAFCghHX2LSHDw0tdbGvSuPGu1TrnqPk7dkBgZC+mPtBXj9RdYT5PSpq0YAlT+P70FoKjZx8e3Zfz2GEGj+0+Fdt1eex8QTy/unj9O82dTKOdQiaOWjfI0TZ8+rWLBVVgr3vfsX54yrV3WpQwTXG2GL9ZCOc/eOzalcf2Njy61uSx5bs8thL70/WO2N/zeezuwmPvlP4mJU1amySa7Dimbxy5/MoV9OvsRRonaNygcUQ9rsBiAgAA4K0Q1tm1hJib81i+fMXl0unQxmbjJF2fkLXTp8MSks36xLX0ZxOn37077UDZdf3j16wpZpRwxe5QRrWHaKcOh4TQ8+Wxsci8NhCTzeoyHusdEI8LAd5ygxDij4UgHGL9sNhcy7EDV849ZlsuoPX+WcmlnWMTYp8VemutIWWMvy/uKZv7wLZ6wLD9HSv6FFttudOvlxDWYj+22cRjM7EEef2mPNZqxaNTBI/OO3msU5nHhuE8tjgp2km0V/fu1I7UrtTO6PfZs5jQOELjCo0z6nEHFhMAAAD5MnOdfUvIvP+YzRlq0r//gcH6nQmjL1+GYMgizrB0mFr82bPVd823jg06dqxWhWL6yldGjuT708ODx06deGwt2qeRiLW+5bHmCh5r+PNYTWSyq4vMn71oPxex3aCXWqiTcO9p0uIn05+dt4WYLDphmzrm9glmGO7inWjy7Fm+XcFRfP9Ff9nuH2t+4gT9Pvq9akFMArl+LI+OkWK/evJYxYfHSgEizuPRJpVHux9Eu2jaqVUrdTt6eFA7U7tTP8BxkYXFRIwrNM7QuKMeh2AxAQAAkKeFdfYtIUOGlC7drl2jRjtP6fyi4gwGCILsxZ2V9NWjGv/0ky+3FiTy/enlxWOXLiKz2oZHqs5Qp44Q1qLdbESs8DuP5c7xqD8otkVm1iqFx8ofC0F4WC3Um4j3aSNi5848enp2manTNfGJjFx+3n7heMcLF/K68KbvR9+Xvj/9HvXvc3NT/34SyLY/CiF9Qb1fdUKIm58XUTxPf1u0g6Zd7O3V7UbtSO1K7ezlRf2A+gWOk2weR2LcoXGIxiX1OAWLCQAAgNcqrLUCm044lPHJ2hKyobL5mpARU6d+Yq2/OqXinTs48WdhCRmv/zjR5N696Qll5w+Yvnat2hLSvTuP7dvz2Lw5j/Xqicyqo8hUi6oM1tZCAIp2NBexzAORybsltm8IoSE8x7r/qQVhNREdHNSfR5/ftq1aEHp6urQtdbt6r8DAiXaV9/RxWrHi/RV2hnHHzp1LruT8JP7ho0evzQIiPo8+n74PfT+1sKbvT79Hu3/p95MlgfaPTsSy94VQuyuOD4rCglNG0w6UWaV2onajdtTuZ2p32WJC/YT6DY6jLCYPi3GIxqWXs5jQuKe1mGQ2bgIAAADZylxn3xLyn1/NfhrSrm/fAxb6U/FfXrqEE3z24uoV5tPGfnD8eJ06xYrZ2AQIy0E6S0hrHhs25NFFTKaztRWZaOEBLlcuY8FQSrRvcRGLPVPHEoUyFoT0fpUq8VhDVClxduaxQYOMhTdlhHsK70Xv3padik02PTpo0IjLFZZ3WTV37pQGNnsGrUpOnutTwycg6fDhpT/ZHxrnev78mq4Olyel/fjj5mVOM6OT/voreazz+YS4x49pmx6n59Pr6f3o/enz6PPV34e+n1ZY0++h30e/l34/7Q/q/7S/aP8VE1HosRfbtN8zu0Cl96V2pHaldqZ2p34gW0yo31A/wnGVTYuJGKdo3KJxTD2uwWICAAAgR4V1ZpaQsmVFBu+FJWSgc2lX1/ENG+7y182LGp2cjBN4Nm9lj9eXiTp99eqgTqV+d50+eTLfn5lZQpqKSXZkLSCrQdWqPFpZqduF2imzW+BFRbsX0UT6u3YSq7bd6fOqVFELQhKm9eurvzcJw3bteHQXZfG6dVNfUNDv7yOqpHh78+gjPM8khGibHqfn0+vp/ej96fPo8+n70Pej70vfn34P/b7M9q92Mh0dP7Q/C2v380seX/S51M5aiwl9//QWE+pX1M9w3GWziokYx2hco3Hu5Y4vCG8AACjgwvrVLSG6TcbTzaaqVTekmv8YUmPy5CPf6u9NWfP33zhR/3M8FK3/eHLpe/dmPDa9P+Dp+vUl//wnS0iLFmoBqLWE5FTGrfAr3skgL6terxaElImlDDBZLWrVUv8e8iDT73R1VQtG2g8dxOzDjh3VGVzapsfp+fR6ej96f/o8+nz6PvT96PvS96ffQ7+Pfu+rZjRz7o6Ruh9Qv6DfRb9XtphQP6N+R/0Qx2UWVUzEuEbjHI17NA5mfMcIFhMAAEDm+pVO8NbWc+qbuw6O9vbeP0F/L/7cd9/hhJy9uHao+fjg/idO1GtR9KHsCc7MEkKTtDKzhOT2Cf5lL8S0wpsyfvQ9SRiSQCFBW1PUmXZyUgvfunXVwpEyihRp/2j/Ts+n19P70fvT59Hn0/eh70ffVzspjn7fy+7f3L/gVfcLrcWE9lN6iwn1Q+qXOE6zF2nco3GQxsWcueCF4AYAgLdEWGf/lvXg0qVD3QwNGux8R/dJVL9t23DCzeat559196OH//zz4BmlLrYpOkUsHJNdSwgJQhKCb+qWdXb7UWYXavQ9SRhSZpgEIgkU8jzT76VMbfXqamFMQlIb6XF6Pr2e3o/enz6PPp++D30/+r6ZCaTcsgTknIVL/bupH2VtMaF+Sv0Wx3E2rV9iXKRxUn0nBBYTAAB4S4X1q2bIypWjW6Pru1lUH/d9QsKR9yzLTKn6v//hxJqFJeSAflPitPv3Z7U1veL7dMOGkl8Z9/bVfv34fn1TlpCcPlG/rPDWery1Apx+l4WFWpjQ76ZJgSSMs4r0fHo9vR+9P32eVlBrPda5Laz/7X7ORYuJ6LfUj6lf4zjPwmIixkkaN9UWk8wmJcNiAgAA+TxznX1LyKxBZeMGberd+0BhS/v4M998gxNoNi0h31isG1fus88atCr6e3WToCC+P/OqJeR19b/sCnDql/T7KONH/ZR+P0USyNqofR69nt6P3p8+L7uC+k1nGN+8xYT6NfVzHPfZrGIixlEaV9V3VPKrxSSrOQe5FQEA+SCz+7YMBDlnCennUPpaq5v16u2soPtv5LytW7HSXDYtIRV1V6MuXbs29EGp1LYm06bx/ZlTlpD8vlBGVsJQ218zE+LaSPshq5jZ67X7L7uCOq+d6HNu4Sh1P8y+xYT6PR0HGBeyt5IrjbM07tI4rG6XN20xye75TnvcZHV8Zxazeh8IcQDysJB+WwaCnLOE6Lsah++aVaqsW2jRLjgtPv7wO7CEZGvhmPv69yaXfPBg1j3T04OmbNxY5lPjXv7qZS0h5B0uaHV5ceLOH3e0qF9SP83aYkLHAR0XdJxg3PjnSOMujcM0LtM4/XrvaOHCGABQYAeCHLSELCt7ZuBpT8/9Bn2JhICvv8YJL3tx/UKLd8d9cfJko0ZFf7S1HTWK78/csoRoM1d5xbqAO1D5W3BrL8i1nvmcs5jQcULHDcaRbFYxEeMyjdM0bufOBTmsXgCAAjsQ5JwlpE90mRrNNtatu6ORXh8ZmZQES0j2Ytos3dnokF9+Ge5S6qN2E6ZP5/sTlhDwNo2jr89iQscRHVcYZ7JnMaFxm8ZxGtfV7ZJdi0l2F0x62cnLdGFG34eq97zq5GV6Pb0fvX9+mbwMwFtxQvi3A0FOVzH4twOBdkU+7UD48paQtdYW04LHxMYe6WNZbfLS27dxAsuiSgjjt7r/M9B0zaCbmzfDEgIK7jib+xYTOs7ouMM4lEUVEzGO07iePYtJKVrRVcRiz8T5RPSDYprHSxbKOHGjLcdZrlzJ9tbHG8ypVq3qXa8d750cPNj2oF/wppZz5thdH7Rpy8516+yPDfFK3rR/f80Ph7vvmP/llzWn+Y/eXevXX2teHTl0b79Hj15si8fp+fR6ej96f/q8jAW5thwnff/MynEi4w0w4JvkRF3epj3NpzmcqlFjgaNtr1ELhg1b5V3z/YkL3313baTDvPBDGzZsvOvYJer6gQNbIp3NYod+9dV2g/PheN8bN1KqOz9JNHn0iLbpcXo+vZ7ej96fPk8tzLOqy1syk4Gw2FPx96fq55UppD7h0ftbW8+Yb1rD75qHx/6h+qrxp776CieobFpCGlmMHPfw889z1hJC5eNgCQH5cfzNrsWE+nkOWEzEcYhxKZsWEzHO07hP5wFxISTa05zOGw+EAL0r4m31Nj1uJp6vL/QicfNxrV1etZydq5t4L/wgePx4+9qDP0juuWePw2T/23sa3Lvn4DBy5N69jOV6FJ9Hn0/fh76fWoBntsAUEhwAA3w2hHX6leYGvl/+pPvZevWWLLFfGJwWEUGCOGWqS+9EkwcPUlJcXBITGcv1KD6PPp++D30//n2tNAOZmRjoyt4Sv5PiH+LvN8Tvvqd+XYVCvdYXS2l+tU6dHWf1XSOHbdoES0g2LSGXdR/HFLl+fWS7UnPbfz9jBt+fsIQAkBcsJnRc0nGKcSt7FpPUA/o6EZs3m/RoXWxi07C6Xwnh/Y0QoOfE+eOgaKfDYvuY+nHrb6zrtZ40/nKbo/ZThyQk/2e3icPyke/tvfaEvTZB/bJx+cgle68/eWK/cMiG5AtpadbHXW+FfujmJs63Vv88PpO+yGp8BuCtGMCzEtaUubWyil5a5Ttf+86dN/s4mUQnHT5sGO7inWjy7NlrE9QvGQ3DXLwT2DO2uarj39FTDrNIhyqd+vfvso//nopHxO/aLwa8rSJuEBcSYtt6p0WiiUnJtjanVhexmDamX8yMwx2kW4l/sU+eWZpMYTjhZDqrv51+8uTZDx/OKWs6b/APSUlmc4z7cV///ny/ZmUJoaW6YQkBGLdzzmJCx1XmFhM6Tum4peMY4xqPNO6/iC31f0yJYezgJv29xCm3q66obGETtD/O2sy4x0tY2In9Wk14vG3EBU+1Zvrwuk4eEc2223kMrLTp8sYxDu/7z91z6WnJPCussxTe/gv3XH3yxC55UIWkpPXry/3S2K3/eVqhU3vHke4wa6u4YNwGb9VArb0lmX4y3+ikist7nGndel2Ew4pI2x078rqwzlJ4DzEK76esyJpFDrXCD+/6fPCHVrs62nQQmWvbP3msITLbdoUjK5Yt4qXr/WvaSN2xmDpf/nRkkv7S5PvywKodcHEi4nHDLxaeIcmnTzcrUfSk3dUxY/j+7NVLfesalhAAXn0cf10Wk1696Dim4xoCWy2wDxv0xyeHMnbISf9R4hjG9l/SB8b/wFjyQF258OCvewY9LZ3g/n++K4veLPW15ebGXat96xO+YvqyQQ7B/gd2f3l/Ur4V1tm0nNT4j2/p9XcXLCjZ3mJajZLk9dYmTDK7E4lxHOSrgVk7IGszIOXKtV5tGlXPycFhTT/H4pP069alTHQ+nxD3+HF+FdZZxnbOnyb4Pmm7/PeabiF7t85wr1NqYYO6Pd5f2cTcZPTwbZv2xOqdYzs+q7jfSu8d7ycPpDSwQnDzuLuWblPMkl9/Hbm+1KgOx2bOpFvRPHbtqr5VDUsIALmXQMktiwkdx15edJzTcV/QBfbBEfq5CdeNAlucJ/a00d2JOcHYjnW6yZHbGVtTocLB6O7PBjbv6xOdVOHP6m+tsM4i2vsP/Si14enTFv1qLfLaQZZObblV7R1KCG6QrwQ2dVxtpsPKKrCF9fFuvd3ctq5yrhQbfenSWyuss4jJ/g6V4+o+TdrWoVz4pA8YS/1BNy7SxSgkY3RXYjow9rGXvm3ct/LAWlAFN91KntfcNGrIuS1bzIYX/rHM5AEDeH/q0UN9KxqWEADenPDOLYtJjx503NM4cKTL22Uxya7ApvMCnSdSK+v8IjYwtvBQ9ZQE4+uaWvt1N5QteMI601h4RHxas2vXrOe0Xx3Rii7g6MJPe+cSghvkK4GttYZYW0/ZW337EK/Bg7c3dg6OD7p9u6AK7HSCe4RTo/hkxractK4QXosxQ19d5whbxtLSdGeiDzG2b66+Tlyfgie4N/a1aD1+xJkzza8WPVjzj7Fj6dYyj+7u6lvPsIQA8ObPA7ltMaHjvlcvGhdonHhrhHYWApvOCykLdY3DVzKW8KDW2FmVGattNtw0zQfCOitrSdXZHp8uaBUUpL7gI52SXcENQJ4Q2DSpsVKl97+27zHuixkzUiycYxPinz6FwM4kNnPulTCDsW2Nq1SPXG0U4Gd0NcIrMbbrtm5fdKu3X3DvjtEtjjG7cSNoXan+nexmzeL9p3dv9a3krCwhNjbqjAUsIQC8+Uz3y1pM6DjOrsWkd28aN2gceesFdqNa/WcuNQrI30ZG7nOFkM527DHy831hz55Vbe9R7N3vqMwrBDfIUwNp9gX2Elup7N306RDSrxa33K/SKNL+1QV3nl+YQdz6nWdm6jW03rZtGVtCOnRQ30qGJQSA/C+8c9piQuOEwmIixpW8ajHRCmya/P5ikqPwYJNFhAT2gqbVZ8ffRwY7pzLcFa61vRRmSlWpqL/RHRfql3SBiLKA4I0IbLrykwX2dBubPcM6+/sbLF0SEicjg/3KVUuau3gmvmMU3A0rrAu3Si+4s+vhzmsnmE0NLMqNn3327MtZQmrVUt9ahiUEgPwruLOymFDiJiuLCY0LWVtMaNzJa17sFwL7d/2OxFtyFRGa5Ege7JWXKjSLOAIPdm55uM0+dRze9bvGjdV3VmjSJN2B0SZqcP4AOTpAasv00ZUeDYQVK45xs27Wa0G3bslNne/H/33nDgRzDsWKTo8TajKWZFluQdh4ObNBmQ5tlZIXZQHziJVkz1X9sphVN2+OOlCmhnv87Nl0q1d967dtW/WtYVhCACh4me6ctpjQuCJbTGgconEpr1hFDqzSRyeMYGxvUX2J2O5yFZFNA/WeYRMZ65DgVXpTPwjjXKtS0myok6HPmTPFfzP9pvI26k90gUd3WuhCEFYSkCuZbLqSo4GPrvQqVOj6naWhqWPjxtvcnQfFNb52DQI5lyZNLnCsEHfRKLh/sWwUekDOdFDmgzIhlBl5U5ntIzMtJ00p++jR/HpmacMqbd+u0xX+rswwX1+6tau+1QtLCAA4z7x+iwmNSzRO0bj1uq0idEeSLIG76ug2RqUxti3R4teweYz5h7aq8V4pCOHXFauv77dqdeJ77/F+QuUoqZ/RnRbqj7CSgBwR2Jl5scuVo4zC6nIOX4fFp6ZCEL8m7/bc6t9HlWBs68cWX4eVZmxnkG5xVMM3793etELXakKrc+daTyn+2HH+uHF061Z9K9fVVX2rl2792tmpbw1ntbIXLCEAvP2C+99aTGhc0VpMaBySLSY0btE4lttCW2sV0XqxPyxmfSmiLrzYb8q7rbtf+0YPX7pA03q3tVYSCG3wSgNdZlYRunVXufLY0xWXe5p4eub3FRzznXd7kotrYhGjsI0pXy3Ul7HkUjqzSUvkWemvy0oi3XqN3X3z5pifSj/s7DlnDt2aVd+qpVu3zZrxWLeu+lYvLCEAgJfNdP9biwmNQzQupbeY0LhG41xuVRXZ+5m+UuxZ2SqypaHF9tDCjPXv3/795R0hfN9UtF3r67t+fVKS+k4JXchRP0NVEpAjmWzKHNCtOhq4bG03fOcYE/ns5EkI4DcTtz6wc45pztjmzRYzJzySrSTk8SPPX05ltg8ftRw2+Z3Hj+dfMFs9vEhysqWh8DkznZ8f3YpV35pt2ZLHBg3Ut3JhCQEA5LTw/rcWExqnaNySLSY0ztG4R+PgywrtdJMeRUKEEiSUMFlwsMrWqIeMOYWN+HBPewjeNxaX+y/cc/XJk/KlGy8f3oAuwOhOCV3IUT/LbJIkABkOZNpMtraqSNWqcbOqzvazDAqC4M0bcWO1Cv1Di8mePm1Vkswy29k9UWwuqXOYcPP8ebdOxX9znhoSQrda1bde6VYszdqGJQQA8LoEd05bTGgcS28xoXGQxsV/m8mmFYEpYdJzVtfOH5WB0M0r0S5w4PtJTffvpwQjj1ZWyGyDXMxk29ltvuJUJTrl4kUI3bwRt+23fxRbiLFNP1tMmhD+7zPbe+P0E2IP/v578IPS57venDePbqWqb62+rCWELtRgCQEAvK5Md1YWExqXXt1iQuMkjZvZ9WRrM9kfzi3/NKwhY47J/rP3HILAzTMxdGS9vbWePjW9X/291lOoH2gz2/Bsg5cS2tRR6JYIDURVqgxZWOFax47du0Pg5s24oXu5+PE3GNve0eLxJL2c2X7h2c6kGgndCl0QZjZnWFhKCiwhAIC3U3i/BovJR2YRQ38xmBxilj0nF3mcbiEamrROk9jJkz1xVd3/vfMVhG1ejVWu9xgxZ0RsrLpfUFEIumOiXdgG5zMMSKpIHYMGILrip1sktrYLu9p+NbrVokUQtnnUQuJaxSnsL4VnW9ySpFuUdMuSBv7Nly2eTCxzgbUJKX66VpkJJnRrVH2rNCtLSJUqPMISAgDI64L7VS0mNM5l12LiaeL2Q/H9LkkT5m8Mtjg0fvSX79CdRSrHStVFNiy1aBVyk7EeJl1rfFQUgjbPWkhK+q3afOzgQd6+Dg7qCzIqd4w62+AfM9nUMegWCA00lSrx6Oi4qYPj5qgRX38NYZtHJ0eesu8UY8bY+gsWTiEB8kqSVDZqR4zuQKTJH++P+b30xK5VFvTh7donmcduol/klCVE61lD5hoAkFcz3doytv/WYtJOfG63PTz67BtVo3RR9wqLHmwN1pUJ7fpnJ5pTs3K4fkDIYcZqdR32aNd5CNo8Gwf4z9w98f79YtXMB9rsadiQtyvV2ab+oZ0cCaGNgUfVEbSWEbqFZmPT+R39l413deyIMn75o+zfmjWWhcclMJaUpNNNfPgkbOo7ZX/p/2hPmCUrnFh28vATInN9gceO4gq9legPsIQAAAq68P63FpOG4n1bizkunXfy6H1EX7RwuzLtRjWMvF3mste5/Tsi33P2mTzhaRoEbf6IFZd3Op9oQutE1KjBY3YtJKCADjTaKiPUUWTLyKzU6g/8L06bBkGbP+LSGpWKjC5x01D/WLEy1e5MC+XtOHiuENiivdsJod10OY+1RX/4t5YQCGwAwNuW6c6uxaSqeB97Eets5bHFaSG4/+Sxn3i/oP85zmhfI3H98YcQsvkjVjvVZ/OyW8uWqe9o0J0OuhDTrhyJ82ABz2RnVmXE2ppHB4cl1ez7j5m0Zg2EbP6I8ftstvumHd7E289/Ko+9xaTG9uS5Psqj8wIeq/0s2l30D1hCAAAQ3hkL78wsJpbidda/iYznZpHIeMJjyxk8dk8RCRDvqus9PnpXf8IfQjZ/xBph/fetDktJUd/BIIstvNrgH4W21ptN5WucnT8cVHPQhMi9eyFk80ec17LGk8Amp+vz9vMVmZPO4oq7yQ4xQIgTRRXhISx3SwwUon/AEgIAwPnyn4W31mJSVjzP/I7IdIrxtUYbHusJQd7mMo/eFjUK+SxYYbjgCiGbTyZFdvQL3hR37BhvP5oUS3eAUe4PZDhgZFbOj0z+tWuv+dxhRrjZF19AyOaP+EEH+4Pj3//uG95+vUSmurWYnVNbTOKw6S4EthgwTO+JAUL0D1hCAADgJTPd4vFSj0Ti6mseK0bx6LCEx2bneOz2yG7GwPObl/7YBUI2f0T7hUPmbV928SJvP5oEW62auKNhqdZTENoQ2hkKbeoo1HHq1dt0wnF9dN+ffoKQzR9x/YcO1yNLX28hMtmHeWwUyKOd8ApaLRYC+wqPJR+L/lAIwhoAAF5FeBcV28We8VjmhjivCqtBdXGnuN4fPLb/s+aHw07uCLvlAiGbP2LN+8PTdjn8/jtvv/rizrG2rjatqA2hXcAHiMyWWqeOQrNpGzTYnuB8On7c3bsQsvlkpcjjzqvifr0nhHO7UeLKW3izbURmWycy2aXFgF+UiX5RCMIaAABeKYFVSD2elrzPo7nIgFaeyaOLqPbk6lczxf+7PUOe9ICQzSdC+4D/gz3LHz8mfaTWSzQplvQUqo9AaKs6As2ipo5ia8tjw4YQ2vkrbjd1Tomvck/comwlMtbOYnJrpQ/FwP+j+kRAJ4bCENgAAPBKvBDaIpYQkyDNxORIa5HgcPTlsfnGmluH3d5x8M8TELL5xDpyZXjaTh1ltKmeNukl0k8o8weh/ZJCG9aR/BU3FXWMiPrsqrhl2ew7Hmuu4LGCyKyQJ7uE5sSAgQAAAHLm/Erjq6mIVuIOor3IaDcdZd968LatTy//ACGbT4R24BCbbacvXeLt16gRhDbIEaG9prBD30mxZ89CyOaPuNrdwSXszrkjvP0ar+TR7gcx0GsGfgwEAADwes6vNP7aidjorO0p30YbWpyYCCGbP6LtDd/JG04eP46MNshRob3sB/tjIZv274eQzR9xeUn7L8aN3j+LBnL1wE4DPQYCAAB4PedX8uy+OL+K5zUsVP2kz4wPP98Jj3Y+idWv+Zxd4bVDlMmFRxv840BAs2Czngw5/xO7soErN22CkM0fcX6E7aPAILFOwoulgLVLxWoHAsyKBgCAnD2/UtUJ7fmVqlTUr2/j3evcwsurTSBk80e0WeqZuLj6qlXUfur2RNUR8I8DQebl/RJNqlkNajdnDoRs/ojUXtR+6vZEnU8AAMgb59e6dStEtDWZ5BMZCSGbPyK1F7Wfuj1pHRKcXzEQ/ONAkH7BmpbLzcfWqtunj2G4i3eiybNnELR5M1L7UHtR+6nbEwMBAAC83vMrrRRIKwfSSoK1aun+tp3qtqD/Yoev/Zfu7v20AQRtHo0D/Gfunnj/fpErZdZWcG/fntpP3Z5YGRJkOBBkvQQ7jy1brgt0OBz+waVLELZ5M1L7UHup24/ak9qX2pvaHwMBAADkzvm1ZEkezc1N/6/ccedFNTxrW3aLSkiat6i+a69lM7c/aOTU3u/khhsQtHk11jjZf9Da/Z9+ytuxhVgQzsmJx0qVqH3V7Y3zKwaCDAcCMzMerUXdZQcHHps2fceteqPhTVetgrDNm5Hah9pL3X7UntS+GAgAACB3zq/pyvyVaOThM3VxU59mza4Pqr0q+MrlJk37Byw1CusGHl435nzCmMsK76XvfQ5Bm1djxQcd18bXnD2bt2eTJjzWrMljhQrq82uJEur2xwJwBXxAyLQMkRWPcvWRbkn6LU18hg6FsM2bkdqH2kvdftSeqDYCAAC5fX5t/euw0HVjnXe2XuL/cKvPvpGtPIfP2uzNWIuBQ7qvPcJY0/q+xZanMtbwnT5/zXdjrG4zjzMz/Y3Cbu3IxnurQNjmmRg6st7eWk+flrpo9dBli4cHb1+aBKktMoDzK/jHzHZmkzZsbHisU4dHV9cNpo5NIv74v/+DwM0bkdqD2kfdXtR+mAQJAAC5RSvL4eGGlqambjaB76T8OdPE9X7A+ymHHhd1LT5y6PYmjLU6M2JAklG4tbg4tNJ6B8aaufitXxHLWKNDPvcX7WOs3re9omcuZkyykKz/FQI3L1lG1oSQZaRVKx7Jm425T+ClhHZmXm3yHjk68tisWdBE60Xdj8fFQejmjUjtQe2jbi9qP3izAQAgJ2GsUCG3xQEBOxr5+rqZB9U2eF6/7mYSwFIYY65HApam9DDGjiM/236dsdbd/J232jDW8r1hvTe6MtbcflDHjzox1vhBv2dLm8oWktr9PfbOmmoUelf8l+85A6H7xuJy/4V7rj55Yr7VsV5X++HDeYuTZYQsmRUr8ghvNvhHoZ3eS8ajqSmPWgsJFWhv126Voeap0LMXLkDwvplI+5/aQ90+WssItSe8YwAA8Kq4jpeEdcOGbuaBIaljjx93cwsMNBgYexGF0H4huKcG1E9ebhTaJ/wfbDMK6HQWknG+wR+MZKzhp979599mrO73PS9P/5wxp6QB4z5aDsH7xhamqdPn1rIru3fzVm/Thkcql6utm52VZQTnVwhu1ZVXZuX+qHyNiwuPLVt6LtXfa9V+7FiU/XszZfxo/1N7qNuH2gu3tAAA4FVpayIJ63LlXC8FWqUmv/ee2/6g5qlWT5+mE9iZCO4XmW1hIWlddsSRLWMZa2k9dMr67xhrtnFg2MorjDWO6VfvvfOM1V/kmTp7C2O1Z/X0nXbAKPwu+TdPWwjh+9piA/8aabsePCgzucrR+r8MGMB7QfPmPFKVEarihXJ+4JWEdmZVSGhWrZ0djzTZrl27JVXt64+df+gQhPDribS/1Zlsag9qH+0saNzSAgCArPAxkpRUpIjr7MDhhpZBQW4jAtsbov/8M0thnZXQJgvJLP/5W88x1ko/vMamNYw1/2FwzJqBjDW5PWDlchPF5EjKbPfqG738GQTw64pV7vTc/W7rTZvUmWya/JjVnWKcX0G2BLe2CgktJapdyIYypy1a1FpbZm11k/79Ny90io5+5+ZNCOLcibR/aX/T/le3h3ZyhnapdcyCBgAALa63AlsY5ri5uUUGVTV8cP78SwvrrAS3sJBoJ0dmmtk+71XpP4MZq1Ove+AUe6MQ/HHQ9KRxEMK5FW1n+iVvLvftt0XCi/9m+k23brxX0JynzDLZ2jvFOL+CHM1s05UdXem1adPlC4sJTYsGB28r7zwpLuj+fQjknIm0P2n//vOVNjLZAACQFW1N/BduS6tSxW18YHHD3+vW5ZiwfsXMdgubwVfXmsue7UZFvQ8vWMtYvWW9LN/5ibFaXbv9NaUUY45Fh00yLIIwzqlYs/TQO4b5v/1WcpbVEZctvr68d7RuzSMtsU6e7PLlkckGOSC0M8ts05UbXcnRlR1Vt6DZuB06+F+s4N41ddq0lKHwbv+rKPYf7U/av+r9Tfs/syttTM4AAICu9sFpaZdLlHC7GWRruBYe7no98P9SB965k2sC+2U9232H3tzwH7kaCS1o07B0nxrzLjFWd2jPMtMCGHOp0zNiRjS82znlxbaoWeuCx+iQEN5LtFZMWpCGqotoq3fBkw1yNLNNV240u5Zm21KdZqorSZMG3N3j3rNZ6nccK0m+aqT9R/tTvX9pf9P+185+xpU2AAC0qTaqcerFrl3dvgmcn1rqv/99bcI6K6FN1Ugos03VSD4YsmNdmFxnu3Hrvifeq8ZYAwuvyXMsGKuzvvtXU3ox5nSx18O5k4yC0X/kmX1jIJyzHXuM/Hxf2LNnVmNbfT6uzaxZvJd07Mgjrajs7MwjWTFpHQrt+ZUSWDi/ghwR3HTlRldyVDeSrAq0QhLdaqHC7l26JDS2aTqwxerVKRbOsQnxT59CSGcSxf6h/UX7T70/af/S/qb9T+2BK20AQMHFrVPgZzt+rlnTrVVgm9Qmu3a9MWH9slYSqrP95bB9G//KwEoy2efdRSUZq+/t2W3WQ6PgdupeNPGmQnBf8m+DDHfWGWy1wKYEFs11ql2bR61VBFZMkKtCOysrCd1KoVsrVPWC6k2S16lr10FnKoR2HDl16lYLp99iL925A4HN49aSTjdiv7rDaP/Q/lLvP9qftH+1t7JgFQEAFDzamoxOSkoqW9bNPOBk6thp09x2B35j+O/Dh3lOYGdRZzudlYQWtlk92HJ1klyVpFF7H6eFfY2C26rXT7PcGWvQ3uPujCLGx/v0/b+FxRhzbj4ieGdtCOsXHuwSQ38zTP6Nmb/n0qN7Smgo7zWdO/NIZXFpJWXtXKfMElg4v4JczWxrrSTaqiS0EqG9PY80WY8EY5curc6Z+dXSjRmz7qFjl/B7PxdYgb3ugqNb+MVrTVvFmXV2+VqUw36Rwab9RfuP9iftX21VEVhFAAAFB9fPA56mzO3Xz2154H3DwWvX8qywflkrCS1sQ1VJNN7t5j38zn5wnbF2JsNurrFmrNMZ/7Jr/s+4PXdQy2XbjK972P+zRXaMucwYOsO4WXCriNj7btxY+1KPEn+Xb+h4cJiJOoNNApvuEL9sAgvnV/BGBDd5lzIT3JSRpQ7u7l5xR7E0y6e+JnOP2ZYLaL1/VnIR5+iEiGdl3lZhvf2xc2TChGcV5tyvcXXkpgMfVPQpttpyp18vcYVtot4/tL8yE9jwYgMAClLmeqRPMqtfv03RwDRDy6NH852wfsWqJK2nj7ie9NQoqPuOPr/jF8Z6JU9kB9ow1vPvYLbrJ8a6tx715baVjLk7jTixLpqx9u0Ht/7Q0vg+u/r3X+jDWL2TA0utMWHM8V3/s7sHvMUC227Ek7SJD70rH+mWMKtX8l9FihQvXraMjx/vPZ1ELyKLCGWwtQKbigkggQXeqNB+VcFNHZo6OE3qE0U0TDxGNXcwjXYKnhi84Dtbt9EzT603eLl4JfzNrPLtCo5dXDwSfmf2821qfDOq0xl902mmVo7tJl3iv9dLeK47xokBoFDGA8CrCmwMBACA/EvzqyPm7bmq17sZguIMqxctyvaKjG+J4O5Yb+yO3acZ63M/SneiDmN9w6LYZ8cY8/aO/OHTnYx5xYdeP2TOmIdHyODd7zHW7eho7+0TjYI7eGS3DcbndzAfWnVFU8balBiwbnEEYy1X9C00zyjM68wc2G3NLqMw/cLfc0+LfCysg/zNdv/1rJuNs0fy/HZHH5aKq7DPyWdsH957PEX1kA4JPDYT50PyYJNFBAIbvBWCmzqwtTWPNImPFlhpIt6n7Qwee4glTwd0arfUPKR+y+ktlpSwmzB2+8W5htYu3RN+Zk3yrLCe5OKaWISxRY9s745p+N/5bjZmK+tsm5PEf8/Qi2IASBUDwHwemy7nsVYh9f6h/UX7DwIbAPA2k2j8V7hwm8GBvxnGjhzptiEwNbXlH3+8tcJaE9uy0cyon1kvFs6OP2Os/4aE+HO1jfFWXMLZqUahfS2GnSkpCe7ou6eMitzno4iE47OMQtxm0peHvjC+7ufxQ/e6Mdb9yzHfGoyCvItvwC9JwYx1Kj2sykffGAX3Yb+hS2ox1qquT+zsQ4w1+t3z4syWjLmM9xuwtpdRuKaNbLi3VN4V1o7J/rP3GL93tXpe89/785uOZWZU+aLJp9O/5n1nyF889jrIY7sPeWy8UugNcV6kSY7kwSaLSHYFNs6vIE8KburA1KFp6VIqS+coXt9gHY+uO3nsJjxRAxbyODq+ummJ/1hPmem1YIp1wMiDjH20oPrqiUsZS57iPCvB4vUJavo8+nz6PtOPmI/wm8AY/77hjXkcsZnH3j14bB8oBoCbPDql8VitkHr/YAAAALz9tDUJCNjRqHVr128Cf0q1Onu2oAjrNm2CglJTjcK4e2jokSNGQd0/IeHcOWNkCeysUWgPYPHsvBTXxydwwR0fKwnufj8IwX02JvzzaUbB/Tjq6vExRsH9dRg7Mokxz3ITT+z/iLEefwUH7xzGWNd6o3ZtHW4U3MnDT67pz1i7zgNnLx3IWOsyfWbPlpZ+39RjY9z7jNWr7l42zCi4B9WofTFqhPF57bqUf/9zoxCfPuz6rp6vT1DT59Hn0/eJma3/dHAxOr9OGqM+v3qNEAJbTHZsJIS34x6hN8T5kaqI0CRH8mDj/AryteDWVimhMjlU97myeJ3dYR7riQOg1X4eu4tZvgO/5DHEZuYGUy+/M4xNO1f29oAWjE0daVa9/wLG5n1cfvHwvxlbcrSybtQUxpafqHo22Higrjpd492Jloxt8LUPi/BnbIudY6eYekbBfNA5PGGuvE2P0/Pp9fR+9P70efT59H3mtjM9OvgaDQSjPuDR5ymPHTcJgS3qcjqKlR2rfCEGgELq/aOdhIEBAACQ/2llOdbD0LJSJbcigb6pVqtXFxRhTdHdPSTk44+NQrlvbOwZ43nD15cLbDkmJpLgPvdMjpLgvuDCBfe5RON2k/hJX3xr3LaNuf+5UVD7+EeP/KyhUXCvCv/jWBnGvOqEhh4IYszjTojpbgvGulmNKbrdKMzdh404ttZ4vmvXfWCHJUZh3nJWn1WzijDW6HHXlOg2jM0aY+o/0Es+v8XbmTf2tWLM39rh89DSxvdt37zdDFvGurRoX2L+BOMFQ/2up5YdZKzpb33WrjOeF+tuHBidbBTGTs1GpOz+VN6mx+n59Hp6P3p/+jz6fPo+84qbfjtkFJ1fgy6oz68dDgmBLepfOwhTduVzQm9ozq9URQTnV/BWCG5tWUCqQ/nCyy2eb/0Nj7aDeKwzUWS4xXThXk48Dtv/3g6zJf7GA3bB92ZNhz2VD8DZd0xnDxrA2Ds/mbr6dWVs+mLTogMOGA/YMmX/r/8uo0DuXPZU/waMTZlSdne/bYxNPlB2XT9neZsep+fT6+n96P3p8+jz6fss9zAvFZhEA8Eg8fu7Cs91M3EgO+4TAnsKj5ZXeDQtpN4/Wc1yxgAAAMj7uGzx8UlKKl7czTvoo1Sr0FA3p0C31NJ//11QhHWHDmPGpKUx1rt3ZOSJE0aBPCA+XhLSAwYkJp49K2WyaTs+/vx5LrSlOGBAQoIU+7N4LrSNglvKcPuuS4iXBLdvl/in532Mjy+Oe/xFCmP9psVGfuFojGYxoz77hTFv34j7nx4xfu7FSROOFGLM03P8ir16xrrbjUpJLstYp8LDb66Zx1jbKgOuvVedsRbDPcOnXWZsSaTZ5pHl8875lb7PB5bmVYLq0vl1oJjU2KW3+vzqcFwI7JlCX1zN+PyqLdOH8yt4qwQ3dfAX1hLxPPMbQnALz7KteH79DTy27yeuYO3WHDb/b3BfxlbeNI8d/Yl8AL5fyOxcQFXGFt8ym+pvytiiALNBI4oZD1hrM7thUYzN9zazGHqXsXffNX061HglPe+U6c0hf8jb9Dg9n15P70fvT59Hn0/fZ8NSi1YhN2kg8GokLhSa8VhbTGq0EX+3FLe0yt4SA0AhDAAAgLcFt9qSJcTd3c01sG9q/KVLBcZr3XbUqB07GOvRIyyMW0Li4rigjovjgpoLaElY87/zTDb9XZnh5s/jwtvPLyHhwgVZcJOlZEC3OPZccItMd99rsQ+/KGwU3CdjJ5yWvN2roiadWG4U3EUmzT3cmTGPARNq7U5mrCsLurZlofFC4MnQoatsGWv9sF/leXvk81lm51dKLL04vwpBrD2/auOL86t4Pr2e3u/lzq+eozI+v1Ztoz6/lrmtPr9S5hpl+kCBEN4vrCXi76X/5tHiFI8Vx4sM8Dwem4vJC91+2ZZo8WuY8Uo8aZzFBxPjGdvoZ+Exfhxj680syo/7ST4wPwo1XzPmlHzArhhm3nfUPjl++KF5+1FN0/+dnk+vp/ej96fPo8+n75OyUNc4fCUNBJ0P89h4K492v/FotZhHs2/FBcdDIbALQVgDAPIr7b4KCEiebWfn+m3g3NS+qakFzRLSpUtIyP79kiUkJub0aZ6p/uILZQY7IYGEtVpg88el5z8X0kJYU2ZbFtyTJyujL0tkF6QMt/ByS5nu87Uk4Z3wWBLeA5rFR3xx2fi+x2IjP19i/F49owof/z/G+tQL/fjgCcZ6ugYn7Pif8XuPGzl/Y6rxAuGjQaWWPpbPZy97fl1Z03zUaLfMz6/0eM6cX93v/fP51fR79fm1KM6voEALbrFd/LG4Ar2hviKtIRZsqR/AY4cSu27r9kW3YmzHOt3kyO2MGfrqOkcYr8iTz+hqhFeSD8wt9y2OhM4wxoYW20MLywfu5s0WMyc8Sh/pcXo+vZ7ej96fPo8+n77Pnja6OzEnaCBoK6qN1DWITHY4jzrhGSstMtnFhMesSCEMAACA/EKn84Mq7KtbpkybokGDDS2nTHG9FdjCMOfBg4JjCRk7dvduyRISFSVZQiShLHmu+/XjAlva1gpr9d95lC0jPEqCnKwlXHhzoe3nx7d9fSdP/vJLLsSlOEAIbjnTLawlXROenO9n/Jzv4x6eLW6MFjExp/4wCm3/yLCjUxjzuDehzl7j87uVH71hWyBjHesMK7fionw+2xmkWxzVkLHUyjq/iA3y+W97R4vHk/Q5d36l96P3p8+jz//n82udb/75/FqU4fwKILxNChdSHxCl7orMtrgirSKqkdQSKzq5TttvpfeO92Ns31x9nbg+jO0tqi8R252x3TG6KzEdGEtL052JPmQ8QOvoNkalyQcsCeOs4osDXLye3o/enz6PPp++z4FV+uiEETQQtBKznl3Eko+VP+aRLDIlH2uutHHgAwDyPK3vBK5M+cTb261E4OHUelevFiRLyM6dUt3qsLBPPpEEdVwcCWspDhjALSLS38kqwoU0WUYoksCWBTVltMkqwgW1bCWhyAU2RS60yVLi5zd58vPXGQX3l1xwJ3xpFNwDFsU9O7fN+L3O8My2T7/IUieM5zMv29CiB4oy1v3mmBUplxjrFDjixtqm8vlMe34loZtb51d6f5xfAcg1wU0HBHmpzITgrqgpg9dy0KHf9TsSbzF2yEn/UeIYxg6O0M9NuC4fiPsv6QPjf5AP0I+99G3jvpUjHcDaqH0evZ7ej96fPo8+n77PYYP++ORQGghaiFtYjpfVv8NM8zvJK4YrbABA3sNtcUBAim+dOm5JQSYGn8OHC1r5va5dx48/cMAoUH1iYz//nAtpKTNNUbaI8CoiksDm2yS0KYNNAly2jCgz2FJGW119RC20ZW83F9ZSZpsENhfe8jZ5uaVMd/+/jJ+TaPy+78SFnWnMWN9ikc8+G8lY7yqh8QeHM9bjq+AjO4yv73RkxKP1l+XzGc6vALx1QpsOCJokSQdMRRGp3nbzU5+01P8xJYaxI5P0lybflyMdiC8GCm2kAzermMnr6f21n0vfh6L4nprvTb/D1FT9OzEQAADyUMa6tZS51encWgRWMRyfP9/1QeBKw/EnTwqKwO7YMTh4zx7G+vQhS0hsLPdcUwabC2rKZFMk6wgJbFlwyx5sitLjkoDmUZ3JVnq0ldsksKUMNglwLrh5ZluOstB+7t3uEv/0Qh+p/nbc39Ikyb4Do8ecrG/8ff0mHT38P8Y8uo37aFc7xjpXGDlvw0j5PIbzKwBvvdCmA4ZWSHwhtAt98szSZAozHnjaqDkgtVF7AGcWs3qfTD9fRPVA4OCg/h0YCAAAeQm+IiNf6nz4cDfrwDjD/N9+KyjCul270aO5JWTSpKNH5cmM/fpRVAtsWXDzKHutKcNNGe/0Xm3l5Mf0Aly2kmgtJCSoucCWPdq0zQW4xsNNkyW78MmRz4X2E8Z8DsVcPvUnY14Xw1seNv6+HkuCj0tCu4vTyNobzf7h/IbzKwBvu9CmA6pZs6NHLS2nTmWMYlYHZm5F7fegSN8TAwEAIK/i9mNgjx3rW7RwOxTklNrw9OmCZgnp1m3CBG4JiY4+eZIL7FOnuKDWCm2e0aa/U0ZbLagloa20jpClRDspkiwiZBmR62inX7hGKbDl8n9aIc6j0kLCJ0ly68iAbqLe9kVe9q/vjqi/TxZnrPcnYUFHdjHW8+C4JmnG13feGFhzU2L68xnOrwBAaOe5iIEAAJDXaGsyOmmXj7W168LA1NSWK1e6xQWeTfV/9qygCOxOnYKDpSW++/ThC8f07RsdLXmuJYHNI/dgS1EpsCnSSo6S0JYEdN++JKz5tjz5URbYPHKBTZMhZc+1dlKkOtMtW0fU3myyjqSvQiLHr77ikyIvKKwjz4X284x29PWTj2Sh7bEs5OauB5LQHrlwY1rePa/i/AoAhDYGAgBAnqFRo4CAZcuKFWsTEtQ09eGECW6jA7cYdv/vfwVFWLdvP3r0rl3cEiJVCfHxiYmRMtdSBlvKXEvbPIPNt7VCWym4KVOt3dZOflRmuKVIQlpdzk9eoEab2c4oUy1PfpQXrlFbSHgVEimj/Vxgv8hoJ2o82jyjLQvtSV5caPOMdpfxgTUhtAGA0IbQBgCAf4BWZHS9GbjUMOrbbwuiJeTgQca8vaOiPvuMZ661ApusIpTRpr/TNllEuOAmga2uKqKcDKnMaCvrZNNkSHX1ERLWstDmj8uWELVVRKwIOYCiWLDGVy7rR0I7o8mQsnWET4aUhLbk0e79SXhLkdE25xntgIEQ2gBAaENoAwCAUlib+19MHVujhtvUoHqpy7duLWgrMrq7jxsnWUK8vSMjP/1UitHRksCWhDOPfFsS0Fxgx8YqM9q0TcJb9mjLApvK+qktJOk92WqBLVcdUVpH0nu20y+9rraYqIW20rut9mhTXW21R1vKaGcktPts4UJb8mjvqso92hDaAEBoQ2gDAAo0za9OOJGUVKqUW1zAGcPwhAS3eoHrUjvev19wLCFjxqQZBaGnJ7eEUOZaipS55tuy0OZ/lzPXSmGtzWxn5tFWToJUC23u0SZvtrK+NglvtQdbXUebhDU9Txbe6rJ+snWEMthyWT96nFtHRHwhtBVVR55Phoy5LFlHvC6GBT2vOnI1xFwS2l3Gw6MNAIQ2hDYAoIDSpklQ95QnXl5uiwNnGeKvXClIKzLu2MFY9+4TJ5IlRJrMKGeuSVhzwS1nsGlb9mZTpMw1CW51ZpssI7KFRBLUsoVEFthqK4lsHVEKb7mutrwEOwlumhSp9mpnXNYv/UI1cr1tEtwktJ8LcU15v+cZbVHeT6o60mfLJK9DV7l1RPJou3+PjDYAENoQ2gCAAkKrWSObpC6vVcvNI6i7YfyBAwXHEhIUJMXOnceN27ePVwmRLCFSPH6cLyQjRR8fLrj79ImOJuEtCWml4OZWEfq7POmRyvgphbZsGck40uRHpeBWVxeRl2RX1tNWRvWkSPVKkLQUu2wVkbeVglq7gI226ojk4eZLsfPJkH7uigVrnkgZ7XRVR8y5dSRgYEbl/XB+BQBCGwMBACDf07FjQEBSkrm568eBcYY/5s51axZU0hDx+HFBEdgdOowdK1lCevUiSwh5rqOitEKbhLUUKYMtR7KMyFYSbhnRToqkKiOyN5sEt7L6SP/+6smR6etk/3N5P2X1kYwWqklfhYQy1bLgztibLWe2yZtN21JmewCbzL58PhmSrCNUR5smQ3LrCNXR7jIekyEBgNCG0AYAvEUwVqiQq0+QSWrS0KFuHwV2Njy9caOgWUJ69Jg4UVo4pk+fiAguqCMijh0zCsHelMmOiOACmwttSXgrM9qylYQiF9pSJpsy1lqBLW1LC9Jk5NWmhWooc52+zB8tua5euEa5QqRyCXaa9CjX05aFt7q6iDbDTY+rV4B8kbH2VU9+pLraUvk/ZXk/KaOtnAz5PKMtrCN8MiR5tJHRBgBCG0IbAJDPcV0d1H1nzaZN3SoG/mYYe+pUQSu/16ULt4R4eYWHS5lrpcDmGWwS2JTJ5sJa+jvPYPNtpfCmDLbWQkKTIJUrP5IAl+to8wy2sryfWninL++nto7IlhGldYQEtzKDrRXc6kmSZAmRBbdywRq5nB8X0hmtEKnyaovJkH7uCY/5gjUktKP+lqwjUtUR7tHmVUfcv4fQBgBCG0IbAJDPaFk3aN/2/1hZuR0NMk0d8sEHBW1Fxo4dyRISFnbkCBfUksDu3Zsy13IGW4re3nybBHfv3iS0yZNNgpqEN1lItEKbMtlyWT++rbaMpF+oJi5OmdmWq41oM9v875IwzqzMnzrDrfZmKwW1JJglAa6MJKTlqC3zp81kyxluLrTlyZAvVoZ8Xt5PuwQ7nwyJlSEBgNCG0AYA5HnamiSaHGJFi7p9E7Qv5Ydx41z/LzAitcZffxUUYd2u3ejRO3dKlpDQUMkSIglpSVhLGeyjR6VtilxYS5lpHrnAlrfVVhHyaqe3ishCW7lAjTYqrSPk2VZOilQuUEOebSlSBltpFVEKb21GmwR1RitDksBWbtOKkHJZP3VVErm6iNZqIk+O1Hq0qY72lwqhrZoMWVwq7xfekjzaWLAGAAhtCG0AQJ7G1TbQZcfiDh3cEgIHGn78+uuCZwkJCZEWjvH0jIiQMtdKYc235Uy29Pc+fcLDlQJb6cnmmWxZeCutIrJ1JL3g1lpGtMJb6dmWq46QdUQdZW+2NqNNFhJ5EiSV96PMNhfasnWEL0yTflKktl42ZbSpvJ/y77I3Wy77p1wJUpnZ5pMhE8RkSF515HlG+4lyCXYutJ9bRx7wjDasIwBAaENoAwDyBO0txvju2latmuvBwF8NhqSkgrYio9IScugQX0BGEtSentx7LQllaZuEtjKTzaMssLnwJo82n/woRfJsk9AmQc0fV1cdkb3a6oVqSIArq48ol1xPbyVRrwip9GTz8n7x8Rkvya6up61dGVJ6nnLJdXmhGl7GjywjyqojmS3BrraKqAU3VSWRJkNS1RGe0Zarjig92s8nQz5A1REAILQhtAEAb5C2JkNNDrGSJV1vBbYwzImNdRsfZGH4+969gmcJmTBBsoTIwpqENhfYstAmgc3L9dHkR+nvWqsIz2Bzy4js1abyfvLkSKVHW1t1RBbcJMDVHm2lV5tbRdQrRUqCWymwlVVHtEuuK6NSYCsXqlGW+1NGSVCTwKYMtnrJdTnTrVywRrlipDKzra068qKetpgMSUKbFqyhyZC9P+EL1pB1xP17ZLQBgNCG0AYAvGZcFwamprbs1cv1aaCX4dYPPxQ0S0jXrmQJ4YLay0sW1pTJPnyYb3NhLVtElJlsso5IlhGqNqIU1hl5tDOuny1XHdHW01YKbLmsHxfS3t7yZEgutMmjHR3NBbZcZSSjqiOyV1su86decl2dwZarjsgebW1UZrSV3mtlZpuibA2hBWrUXm3lypB8wZoEUd5PLbSfrwwphPYLj7Yo77fhDwhtACC0IbQBALmI2/jRNbd/5ezMM9f79hU0S0inTmQJ4ZMZyRqitIhIwtrLi2J4uFJoS9tkIVEKbUlgKy0jklCmbcpoK73Z2gVrlOX9tJls5WTI9AvTqIU3CWhtOT9llRFlpKXYKbNNUbsEO1lFlEuxk+BWL7GuXrCGLCRK4UzebGWZP6msn9JCQpMfpW0S2qq/v8ho08qQ3DrSbyNNhlTU0YZ1BAAIbQhtAEBu0PRycFraZTOzNvrAn1KtZs92iwgcm1r70aOCIqzbt+eWkJ49J0z4+GNJIIeGHjzIhbYyShltLqjVGW0S1pJFhAQ3t4pwy4gktNWRT4aUMtw0WVKZySZvNi1UI3u15RUiKZNNwpqEN7eOyAvUqAV2egGuXSFSaR2hDLe8QqQssOl5tPJjRkuvKydDKquNKKN2hUitwNauFKldwEbtzdZMknxRdYQL7QFfqj3a8sqQXGhjCXYAILQhtAEAOYK0ImMbz6Dlqb8PGuR2LXCvYeOvvxakFRmpSsiePTxTzTPXXFB7eJDADgtTx9BQdUabhDcJbO7ZJoFNVhGlN5tHymTLGW4S0GoLiTwZknuzKcrCWrlCpLwEuzwpUmkdkSMJbvXKkFphLZfvk8v+UdSuCKncloSytp62chKkbCWh7fSTHzOykigz3dol2ZUZ7RcL2CgWrOErQ8Y+PHtPrjoiZbSVQrvL+MCayGgDAKENoQ0AeCXamgQON7Rs3Nj1UFAjw4wTJwqOJSQoSIru7sHBkiWEMte9ek2cuH+/LLQlgU1WERLYXFjL21rLCLeIyAJbaxnJKIMtRaV1JL0nW14JkjLZ5NFWerOVnm2qOqKuMkJ1tanMH3m05XraynrZ2qojlOGWhbY2sy17spXl/pQrQ5Lwpqoi6vJ+2vJ9ZCXhkyFlAS4vra4U1iSo5Sok6jJ/vpo62lTe77l1RJT3k6wjtDIkyvsBAKENoQ0AyDat70iWkPLlXX8NPGDwW7bMbX9Q81Srp08LmiVEqhIiLXnu4TFhgiSse/YMDZUiCWs5gz1xIgltpTebhLYkqKVImWwS1rJHm2eylV5t9UI1NEmSC2vZOkLVRtRVSOSFaiIiKKPNhTaV95M92cpJkbKlRFtHO31mm+poK6NsHZEXplFGEuKy4CbLiHahGqqnnfGKkHL1Ee1CNCSo4+PV9bTV1UbS19OWy/xR1ZHzwqPNM9raqiO8jnaPq2QdgdAGAEIbQhsAkAk+RpKSihRxaxzwo6HMmDFu1QN/MXxx61ZBtITs3i0JaJ6xpigJaSmTLQltEtjS3z09SWCrLSOSV5tPgpQtIyS8yYudkWVEXqAmvdAmQZ3xwjWy4OaCWl1HmzzaPj60TV5tymzLVhEusOWVIkmQk8DmkyG5ANeW89MuvS4J9IwXrCHriJzJVtfPpsfVVUfkyY/yQjbqJdnVC9jIVhGaBEmZbPnvvLwfRZoMmSgmQyY+zMijLU+GlDPasI4AAKENoQ0AUNHWJMgk2SgzXX8MrJ464MsvC1r5PXf3sWN37eIZa6kMH1lDpEiZbGmbBLdWaMsZbC645cmQcmZb7dGmSZBhYWrLiLbMn5zxVgpuqj6SkSebR3nSozLKgjoykltFSHCrvdmSsJaep5z8qPVkKwW3PAmS/52EdkZWkYw82kqriHJFSOXkSGX9bKVHW5vZVlpH5IVqZC82CW16XGkhoYz2iwVshND27ZL4UMpoP1+CXSW0uXWk58GQmzyjDY82ABDaENoAFHhcPx/1Z8rcqlXdLga5Gs5v3FjQyu916MAtId26jR8vTWYka0iPHuPHk7DmkWew5cx2aChtc482CW71ZEil0KayfsptSVhTVHq25cw2CWtaip0sInLUrgipto7IQlsS0r170zZZSdIvvU4Za/VkSNlCoizzp1y4Ru3RVlcfIUEtC2sS3hkvXKMs85fREuzKlSHV9bPVS7FLUV3WT7aMZGQhoW2qry15ttXWEXkyJC/vF3NZKu8nrQyptI5IkyFhHQEAQhtCG4ACRld7yWtdooSrX+AWw+6oKDdD4ATD6rt3C5olpGtXmsw4fryUuZYENgltZSZbzmBzwS1lsCnDTdYR/jhNfsxYcEvbVNaPPNoZ1dFWbvPMNlUbUVtEqIyftuqIdjKk0rOtXRFS6d3W1s9OX95Pngyprj4ie7NpCXbKZCsXqFF6s9Webbl8n7KsH60I2a8frzqi/Lt6EqS6fjZ5tOVJkJTZljPX6iojGXuzlUuxP1+4RizBTlVHVHW0FQvWGIX2zbQLqKMNAIQ2hDYABYq2JkFjUmf06OE2N6ht6ojvvy+IlhA+mXH8eMlz3b07F9aS0KbIBbYcubAmQU2e7IkTKcPNrSOyhYSsI8rJkBlVH1EKbbmsn3plSLmsn9ajrc5opxfg6ResoaisPiJ5s5WZbpr8KAlw5aRH2SoSFUWZbHVmm4Q2WUVkoU2WEbVnW13mj6wk8pLs3KMtW0TkaiMksJWCW7lgjdKjLW1ntCKkMrOdsaWEtuWqI2QdoTraL4S2YmXIPlu40PZYhsmQAEBoQ2gD8NbTevVI02QnBwe3vwOnGTbv3l0QLSE7dkiZ63HjJGHdowevcy0JZ5655oJbmdGmyK0jsidb7c2mDLa8ra46krE3W8pk88irjdBCNb16USZbXUebMtpU1i9zb7YswLVLr/PHySpCkyIzLvMnCW+ewZbrapPQVlpHlCtC0sI1Ga8MSdVH1EuwyxYS9YqQlLGW62eT4JatIspJkvJKkDT5kVtEZO+2nNHmwlm2lGQkrGnyY/p62jyjTStD0oI1z6uOFBZVR4rLdbTlqiNYsAYACG0IbQDeGlpZDg83tDQ1dbMJfCf1wsyZBW1FxnbtqErIuHHSZEZJWHOBzYV29+5cWJPgJqEtRWlbepwLbZ7JJuHt4TF+vNIqIgtrufqIMnOdkYVEbRmRvdraOtqZLclOkyR5BpsENmWyZcsI/V1Z5k85CVJdT1stuKWMtXLBGvJqK5dmV9bRJouILKD5tiS4pUy1j09cHFlKMspcy0uwU3k/tUdbOQmSJjuS8FbW05aEsnZypNoqIme0qbqIdkVIbSZbVW1kgKizrViCnWe04/9QTobssyUs6MUS7FXh0QYAQhtCG4C3ArfFAQE7Gvn6unkHTk21+uWXgmoJ6d49JETyXJOglrZ5JKE9bhwJbB5DQsgios10879PnMiFthzV1UZ4He3MhLdWgCuXYiehrS3zR5MiySqijdrMthRJYGuXXtdaSKicHwlspUdbLaxlgU2WEXVmm2eyvb1JWJM3Wxbc6pUh1ZMfld5s2iahrRbS6ky2bBEhCwlNjlQLbKWQVma6M7OIyJ5smvwoL2Cj+ruivN+LqiOKBWvSrwyJjDYAENoQ2gDkP2FtCIozrG7QwM0QWM+w+tixgmYJ6dhx9GhJYHfrRsI6OFjKYEvCmjLZ0t+lx/nfSXjLGWyyjCi92iTA5UmPsuAmT7bas02TIuW62doFakhok0VEmdlOvwR7+kjWESr3pxbYPKNNVhHZOsIFtySo1VVHyKMtW0bIk62cDEn1tLVVR5Sebcpk821aITL90utay4jSqy1nuNNHrUdbWTdbngzJ/66soy0JbPJmy+X95PrZJMTV1UVoWz1JkqqTyB5t7YI1PKPtc4isI2FBh64qhTbqaAMAoQ2hDUCep8PgMaeSnSwt29QMqmyIX7KkoK3ISJaQzp2DgyXPtSSgeQZbFthccJPA5hlsilqhTZlu7aRIrWWEJkNqM9pylRHKcMsZbcpcKyc/StYRZVk/pYVEOwlSXeaPL2Dz/+xdd3xU1dYNKtKEFLog0psg0lsyoUuT3jukzITee0hoKhbsXZr0ImSGDiqKigoi9v6sqM/2KYoNkPvdy7mLvc+ZiQm8gAnZ2z/2705iSCZz91lZs/ZaBLT1ZUhotE0Xku7ddbcRJwmSS0f48iMANrf5I8BNTDai2PWESH0Zktv+mTZ/YK7NpUh9+RHR67q9HyVFmgw2BdboPtrQZpMbiW7jFxzBHhpgQ0JC0pFQ9n699838Rtn7QaONwBqRjkhJCdAWoC0lle0KiYwxt3lH+Jv5fJ413kCg2Y8/5h77PZ/P6e3agbkeM0b5XI8di64AN11zoO1IRBwADqANTTZJSUiTDWabS0f4NRhszmhjCRLJkKTFNl1GIBmhZUgkQypGWwHqYK22HljDpSRKk6202liSNCPXg6PXCWBzyQgYbQLYirl2ItmRDKkz2QDeur0fADcx18RgK9cRsvkzNdgm4NbdRyiKHVIS7i5C0hJISUgiYkpH9Gv1cQLacBfRgTe02pCWkEYbQJsx2npgzVkfbWG0paQEaAvQlpLKJuX51fd9WquYGM+L3hGBKa+/npu01nAJUf7WANBjxiigPXq0AtYKcHfoAEmI+jxIRhxgrTpptZ3uMNW6dhtAGhrt0AC7c2fFZJOtn+6rTXZ+6MF2fnwZkkexQzqigLbuOgImm7TYiGJHYI2+DAl7P+dx3Vc7dEIkB96QinDXEQBtLEUicp1HsnPXEQLeCpAHS0b0IBtz6ZE03IrR5kCbu5GQzZ8esU5LkKmpiuHWAbUTZMMZbgqsMRMg4TqC5UgAbffatfdzpCNnXUdOOcuQsPeb7FMa7bENHaDd7j+i0ZaSEqAtQFtK6l+rVkN9nbZVKVPGM957pf/XVatym9a6VaukJKd36EBAmjPVANxOVzZ9ANpgtJV0BJ/vAG+d2SaGmzPYYLZD+WZz1xFitHUm2wHY3EfbtPcjwB0aYANQOwAbS5A8CRKR61iChHSE+2oDSHPXEXIZUcAakhEsQ5JGG9IRYrR5BDtJR2g5Utdmw30kdCQ7liM50839tMFkw3UEmmzY+gGAU2ANRa4jIZIDbc5s6wCbtNnmEqTpSoLHOYMdHMFO9n6hXEd67AfQVoy2AG0pKQHaArSlpC5i1dzoSEKuvNIT520VuHPatJhvvJ8EBh0/ntskIW3bjhqlmOvRoxXQHjPG6Zy51oG1uoYmGwCcNNoKYENCQtps2PxBQmLa+em+2txPWwfaBLg5o921q+mrTUuRDvAmrTbZ/kEygsAapzuBNQDcANS8E/AmZlvvuq0fSUSgzTalJGYiJElHTFs/3jlzzZchKRFS+WnD5o+7joDRNgE212IT0CZmG/Z+oQA3AW11TcmQ5jIkabUBuLntH49k50uRXDqiGG0FtAe2S/1LMdoqsIbs/aZ059IRx0dbpCNSUgK0BWhLSV3gir02qUHggw4dYo77Cvif/Oij3CYJadNGMdft2yuA3b796NHp9fSANphsSEMgLVHAWvVgRltdk3QEWm3T3o+Cari9n9MhGVHLkGC0la0fliLBYMN9hBhuchfRJSNmUA319Oz9uNsI+WaTZIRLRUxmO3gJUklGIB2BZAQuI6TdBnNtuo4orXYw0w0Gm+z9AKz1hEg9gp2WI0lSAlcRHsUOgE02f8Rs80RIAG6+NGn6aEMyojPaoTv8tB3piL4Myez9tGVI8tEWoC0lJUBbgLaUVBZXi7CRG/wHKlf23O99039g27bcKAlJS3NcQkaP3rJFdQBtSEXAaOtAmwA2JCTq8/THHY02l5aQVlsH2qTVpiVIndkGsNYZ7WDJiBm9rkeyg9HmGm1ot3UfbTDXAN6Qjug+2g6DzaUkZPMXrMkG8Iaf9j/5aBPgDq3VdgA3X440mWwKqiHNNlxH8HEOtLlkBD7ZPILdBNhk76drsk3XEQBtHsmu+2frABvLkdSh2aZrDVCzREjTR/uNM9IRE2irZcge+88C7e8Uoy2uI1JSArQFaEtJ/c/V9o3BJfdcX6hQzMPen/3FFi707PS+6//4r79ynyREAWwOqAG4FdAmQK0AtGK4HckIALW6xjKkCqIJBah1hpuYbtj96UE1lAipB9lQYI2+FKmWIElCEqzR5kAbUhEOsLlmOzgRUvfPDuWjzaUi3D8bgBuuI7q9HzHa3N6PliJNgK27jsDuz3mca7OxBEkMtg6wCYgrP21IRqDVxhJkKL9sAG1Eq/POlx/1KHbqerANabZNgA0mm/toQ5PtSEQ40w1N9llt9lnXkVRNo93/LSxDUgS7Ix0RRltKSoC2AG0pqSyomEOJf6fd2bev5zNv58DNR4/mRkkIgLVirkeOVH3UKAWwVXcAtfP5HHBzZpuAts5wmxptaLgdgGza/elBNfo1AHd6Gm1KgiRNNoC26sGuI/DN1rXawVHsykebtNpKkw2gTbZ+oZYi00uIJFs/BNYAcOs+2qZ0xAHeus2fuRSp+2mTbzYtRypATUuRClhTQiSPXCetNvyz9cRIsvnTlyHBcJN0hJIgdaabmGvTfQQuI5zB5rZ/egS7AtzkOhLsp30GiFspZ1xHBrZjPtqnXB9txmhz1xEB2lJSArQFaEtJZbKaf+dN3vpMnTqevL7YQOX9+3OfJMTnc4Cz42+9eTMH2AS0FfBWTLYDsJ3HAbTBcOOaALUC0NQBrGkJkmu1ua82T4QM9s/Gx0mjzRMhYe8H6YgTXIPAGnQAaFNCwu39TK02SUgmToQ2m0ewQyoCrTaYbCxDQjpCwFpnuEmTDa02bP2I2dbt/WgJUncdgWQEjxOg1pcjSULCg2poGVL31XaAtK7VBoNNQTa6fzYtPyqgTY+bEhIsQQKAc602NNp8SRLAGww2l4xwoK1LSuCrrTPaA85GsKecdJYhz7iOaBpt5jpyJrAm4V6RjkhJCdAWoC0llU41+TJu8a4vo6JU5Pl998X86V3qP3DqVO6ThChg7QBsBzi3azdqlHPtAGt053EA7/btR44Eg62ANQFsMNU6s01+2ZzZNoE1gLTzOJeM4HHy01ZAGp2WIJEICW22Lh3hyZBcKhKsyVaMtsNQ68mQ1AGwuVabB9jwZUi+FKmAN4A2JUSGchsB4IZmG8w212hzKQkPsOHAmydFQjKiR6/rPtlcQoIIdu6bTYAagJsi16HVNv2zua2f83lKCgKmmxIjTSCtR7PDfQRMdvASpH4d2n2EADaYbixDwt5PAe3+b5mMth5YI64jUlICtAVoS0lplWr/d9llnn2J3wTqJSbGvO2r6P/qhx9yjyRE9datk5IUoE5KUgBbdYe51oE1pCLoWH5UkhFitiEZUQDb+TxotbmPNnUsQUKjrTPY3D+bB9dg+RFabLL105chKRlywoRQftrEaCsmm4JriOHmHcw2fLWD7f109xEkQZL7CCQkemANSUh095Fgez89gj2U64gOtAGwg5lsAG1EsevAm/yzTZcRzmw7H9eBN2mxkRSpa7X1pUhHIgIAzrXYBMhTUnRtNtn6cdcRAGj4aXO/bJ3RxuO0DMkDa0IB7df78sAaAtoOo93lERXB3n68MNpSUgK0BWhLSYVF73MAdfPmnkreKv7tr72W2yQhLVv6fA5AdpYZFZBG1xlrMNoErKHRVoDaYbShzTYZbQBnXTqCZUgsRyqpCNn86UuRpoTEZLYdQA1mm/tqk1ZbSUgcyQjXanM7P6XRpsAaaLNDXROzrS9FmsuQZlKkA8BNRlsx2aTZNn20ua0ft/vjUhGH2QbgDuWfTdHrJB1BIqSy+4Ofts5om0CbtNp6BDtptNOPYjeBNSQkCkCj69Hr5LOtA+9gP20w2CQZgXbbBNhmgE0ogE09dAR7309N1xEFtCmCXRhtKSkB2gK0pXJhxYxPTNxcrHRpz+XeAYESK1bkRmDtAF5HEvLkk4qxdroDoFU3ATeYbWizTckILUEqTbYJvGnJUTHYANoKYBOzTUuPAOCmdhuMtr4MieAaAto8yIaWILH8CIabfLN1jbZisB0grTotQypNtumnTQy3YrInT9aj2U0fbRVUwxltHlhjarS5jR93HeEMN5YgOaONZEhistU1t/Xj7iPw0zYDa6DNNiUjfCkSgTUKcBMAxxIkt/UzmWwHYEMywiPYwVhz1xEAb335MdjmT2e2dW02Z7b1pUcAcB1gnw20cSPY4TpCjLYC2vDRPrMMeY1IR6SkBGgL0JbKJVW/fmLiI4/kzRtzyLs7sH/yZM9I70b/zl9+yU2SEAfwtm7t8ynA7PMpgO3zbdpEQJskIgDgxFyDyYaERAFpXZtNDDaWIsFsk5RE12ZjSRKMth5cYy5FwubPdBshv2ySkpg2fgiqAbPNgTfZ+lEwDbTakJTwhEgAagdgg9HWg2pIIqJcRyiKnQNrsvmDVISkI6GSITmzDT9tAG4w14hi5/Z+BLBVBHso1xFISBDBDp9sdABrrtkG0OZMNme6aTmSkiEBvKG55sw2LUWSNpsDbHIdUdIR7qcdqmM5khht0mKbS5C6nR8tQ6ruupEESUdm/6VHsEOjrYB2u/+IvZ+UlABtAdpSl3C1CPOW9R9o395zs/f1QKUPPsiNLiHQWDuAGgw2MdeqO5IRAG0FvKHFJqY7FIPNNdqQjAB4q2u1FEmSETDdtOyootexDEkMNgfeANamZIQnRSJqXTHY5J+ta7bhNqK02dBoO5+n+2iH1mrzpUhdIqKug5ci4ToCH20dgPModj0hUgfanMkOtQwJiQhffsTjZmANJCR6QqQZxY6kyNCMdijJiGK0icGGdES3+1MBNmC0eZANgDd3IaElRz2ohruP6L7aunuIGcluJkKaS49wG0kPeIPRJtcRxWj33jfrI8d1hAXWuNIR0WhLSQnQFqAtdQlVdHRS0rZtFSt6bve29U9OS8t9khCv1wG6jr/1xo2qK4ANBhtAeuRI9TgANjHYvJuSEbLxI0Bt2vtBm61/Hvlm84RIYriJ0eZAG8CbM9gms61Hr0NCQm4jumREZ7Qpip002mC2zaAaU0ICOz/OaDsAWtdmQ5MdDLS5JhtMthnJDtcR2PsBcJuR7NxHG3Z/YLZDLUNyJptLSWgpEgBbRa1TMA202roLiQm8edQ6ADZPigy29SNJCez9ALC5zR8H3FiG5MA7Pfs+5/OgyeZLkg5TjccV0A7WbL/9NiVDEtCe87dyHbGBNhjtKw3XEXcZUhhtKSkB2gK0pXK0JGRr/YIFY6/wDfE3mzcv5idvU/8df/6Ze+z3SBLiAOt27bxepzvA2gHSANpcImJKRTijfeONCpCDweafp0tHdE22GVQDRpskJApQm1ptzmzrtn7oJrA2/bMBrPWESALe6LpUhAA2/LNh80dLjrhWABvSEQW8oc0Gw+0E1uiR68R4A4BDKqKANy0/qgCbqVORFKkkIiQZUcB72jT4aetuI7QcqZhskpDAdUQx2qGXIMFom0E1xGSby5BIiDSj13VG23kcS5B6YA0Bba7NJjcSkpToATY6sx3K1k+5i+gMN1+O1H2yqYPRNl1HeIANuY7oPtoA2r33UTKkch0Rez8pKQHaArSlcnDFxiYm+v29e3tu8jXyv/fFF7nNfs+RhCiADICtGGwHUOuAWwfWYLYBqAGwAcy5pERnsgG4FbDmS5FgrE0JSSjmGj7acBshX+30gmtIq60nRJKvNrf1I4Y72M5P7wiugUabmG3OaANgI7iGLz1yCUmoZUjdzk9nsulaSUeQDOkAb2i2Aaw5o012f7o223QdcQC208kvO7TrCElI9CCbnj0psCaU6wgx2npQjZn8SJpscheBf7bObFPio/O4A5B5gA0tRQJgk9uICcDBWJtLkVyTfTbpsT8kI7rNHw+q4cCbliHhOgKNtpKOOMuQZzXafyqNtkhHpKQEaAvQlsr21SLMt2fboFq1PKe9DQKt9u3LjS4hDrAFsA7uCmgDWJtMNgFldEhJgl1HALhN1xFzWZInQzqAO5S9H9n+kQsJj16H2whJR3R7P+6fjYRIU0rCGWxajgx2G+FAm9v6IcCGR64DaEObze39FACfNIkvRXKNNiQjpr2fWorU3UYAsMnejyQjOqMN6Qgx2gDaukZbD6oxpSLO4wDYzuOw9aPIdSRFmnZ+YLJNKYlp66eYbESym64jpvsIGG0KrgHDDd9sPXKdItnhOkLabM5sc+Zaj2Q3P65rtgGsSaut2/z1P8top/7lAG0w2k4y5MH/cxht2PvBRztxkABtKSkB2gK0pbIhsB4WtsWKiPA0dZYZ77479yUyKklImzYKKKcPsFWHJhtAG8CbGG76OorBxhIkHiepiO6frSdAkq0fHte12iQRIekIJCVwFwHghoSES0dw7QBlLh3hNn6hXEc6dNBt/eCb7SRDmtIRU5uNwBow2wDQ3HWE/LX1wBoewa5rtfXAGq7Vho0fGG0eXEOSEp3BDl6GJFs/E3AjGRL+2uYSJF+GNF1H+FKk6ZvNlyGdrktHKMBGX4JUUpHevYnBdj5OkhGy9eOBNehcCmJqtE3pSCgfbW7/B0abJ0SariMkIaEO6QgH2kiGPOM6cspltE+oZUiH0cYypCMdEaAtJSVAW4C2VDYoN5Ex3DsuMDouzjPI+3+BHt99lxvt97gk5Fw6Z7K5pATAW19+BMAOLSkJtvsjFxITeId2HQn21zbt/eBCAgZbdxmhSHbOaNNypB7N7nRIRqDNhkSEM9u0HKlLRbAMSYAbjPb48Q6gBuAGAKfodUhG6BqA24xe1yUkClADeHMmm3fT1g+2f2YiJNn7qe5ch/LPNl1HALQdwAypiJkIqWu2g5chTdcRLEfyCHYuJVHMtq7J5oAbtn064CZm2wHWYLwpcp2ANgfW3OYvNHMNIK1fmz7bPLCGS0dg79d3rek6oqQjotGWkhKgLUBb6l9mrpMqB9o3aRJzyOvzHzl0SCQh59cd5ptLSIjJJlcR3X2ErqHFhsuI7jZC2mz1uALcXDKiNNtKo00SEkqABADXA2sArHUpCYJq6OPQZuv+2SQpGTcOWm0dYANYk2YbS4+hADZps6nzSHay9dMDaqDRdgA2dx0JXopUgNqRjnCAjeh18s/Gtek+otv9gcHmSZBYfgSTzSUkDmOtur4MSQw2abN1jTY6+WZzRpuYbCUVMYNqwGATwCZgzQG3A5zROaDmjLVp88c7D6bRA2oIQIcKrOEJkUqrbSZEYikSriMpmr1f/7fm/Hjkd9JoA2g7y5A73nSAtmi0paQEaAvQlrqI1erl+FqBEiVLeg55CwV2LlvmSfYeCcSfPp17JCEq6jyzkpDMdlMi0qaN18tdRkzmG0DbdB/BkiMtQZq+2wDapNHmATY8ct10G8HHockOFVQTfB1aOgK3ESRCklY7eCmSR7CbTDYtQZJGW13D1g8abTOSHQw2XEfUNQFsXZsNCYnDZHMJiQOcOcMNKQnZ+lFCJLfz47Z+enANAWweWAPJiHPNA2sooAaAWwFrB2hz/2wE1ZDriK7RJk023EZ0Wz9yFdE7X4bkyZCc0TYj2U3gbfpkq8ehzQbDrWu1Q9n7mf7ZHHCbQNtJhtSlI6FdRySCXUpKgLYAbakLWkhkjB3naxT4a8IEzyZfaX/8sWMiCcnqrjPZwQDc1HADaJPbSChmmwNu9XHdNxvJkViCNF1IONCGC0kobTaXkJguI7q7CNn6hVqGJOkIabFDPe64jZgSEi4dQQQ7abZ16Qhs/hxbP0hHOJNNEexKm02AG37aANbB/tlgvDmjDakIdyOBdpsvQzoR7Nw/m2u0sSypS0b0ZUiSjhDwxhIkHuf2flyLrYB3MLOtR6+rawBtM6gmGHgrYB1s8wcArV8jsAZabdJgA4jrwTWUEEmdR69zu78zgJwF1nDXkTOBNSd0RhtAWxhtKSkB2gK0pbK8YqO8XwRKtG3raeArGvC8+25uTWS8cMA6tEabA2t+TcCakiA54Da11wS4aRlSAWuSkHBtNgFtvRPTHWzzp1/r9n6OhETXZAe7kOjMNgFtJESC4Taj2BWzbTLYCmA7SZF8CZL7aXOGmyLYCWiHCrAhtxFErRPAVrZ+6nHSZJtabTOgRrmOoEMaAo02JCXEZFP0uhnBri9BwkdbJUJSYA2YbNj8KYaba7FDBdcQoAbQJsDNI9jJZQTMNWm0TR9t3eYPkhHT9s/UaANwk+YaH9ft/eAuAsANgG0uQyKCfc7fZzXaZ5IhKbBGuY6owBrRaEtJCdAWoC2VJdUizBe2xSpf3lPV+4D/3iefzI1aa0hCLhawDgW0QzHZJrDmy5A8KZK7jgRLSFRgDbmOmME15KPNEyKh1ebSER69ToAb1/RxHXCrpUgC2sR0h5aMIHodtn+66whPilSdriEV4YE1zjX30UanpUgE1phLkCqC3XEdwTIkdx2BbzYx25Mnw20E/tkA3lwywoNqoMnmzDbvitHWJSUcYOvXANS0FGkuR3L/bIpkVx3Lj2Y0O/lrU+Q6l45QIiQtPeqMtuk6kpICQM6ZbTDXTtcZbj0p0lyKDO7w2Vb9rO/2WR9tZe+HZUgAbfhoi3RESkqAtgBtqf+pmnw54aUNGwoU8CQnHvaPSEnx1PGuCrT544/cmMiYlVrr89doK002uY4E2/txptv01SYATn7aoVxHkBBJgNx0GQnNbGNJEkAay5EUWKP7Z2MpEow2AW/SbJtJkAp4K0YbATaIXOfR66EBtmK2HWDNbf6g1UZgTbDLiPk4AW1dSmImRJLNH5eMcLcR7joCgO0kRAJw86h1RzLCGW7uq80Da7AE6SRF8mVIh+HmCZGmrR/3zdb9swGs9eVIaLZp6VGXjIDRdjqYbB61zt1FnMcdIM1dRrh/NgC1LiGh6HUsR4LBNt1E+NIkHgeD7UhLnAh28tFO0ez9+n6a/KvSaMNHe7KPR7DfuDbhXpGOSEkJ0BagLZXp8oz3Xun/tUcPz0e+sED7zz7L7YmM2aVDg01Llun7anNmGx1BNc7n6W4jpNnWATaudR9tkpJQQA3cR8ykSL70SIE1wdHrzjXXZOu2fmCy4aOtM9xgtNMPqiEmm2uyeTKkmQgJlxFotUMF1sDGD0w2X4Y0EyI54CZXETOKHXZ+egR78BIkkiKVVhvabAdgq8cpGZIDbzDXlBCJa9PejyLYdXs/dN11BIw27P3IL9sMrlGuI6TV1iUjPFLdTITkCZBk94ePw1VE2fuB2cYSJLmTUDAND6qBG4nJaPfvCOmIAtpOYE2Qj/Y1wmhLSQnQFqAtlUFFH/cuTdtfs6ZnpTc5MPypp0QSkj07D6RRzDYtSXJttpkI6QBoPaKdHtelIwSk+RIkrkMx2Saw5kE1kI4AYFNQDV2nx2TrS5A6gw2gTdcEqOE+wgE399U2pSJ6IqQC3A6Dra4RVAO7P3UNmz+eEAngrQfXAGBjSdJMhqRESK7VhmQEgTUOc82BN32cpCSQjuhR7JQQaUaw664jJqON5UiShijJCD5Oy5AIroFGm7uRcN9srtV2GG/dZYTs/EK5j4DJBrPtAGcA7dBa7fSWIcl9BJpt03XkzLXLaNMyZPKvjr1f37UzfnUYbUhHbKD9HTTawmhLSQnQFqAtdbbatElM3LAhPDy2tO/uwMzFiz2Nffn9006elETGnNHN6HXSYIPRBpAG4Ca7v1DSEVNiwrXamQmoMTts/8htBMAaAJySIUO5j3DXEW7vRwAbffx4JEQCSOsR7BMmcMANyQgH3Fwy4jDX3E8bgNvRYIeWjABgk0YbgBtLkZzZNiUkXKPNmWzncc5kc2ZbfR6YbMVs0xIklh9h+0fMth7BTl3XauOafLQBrHkypAO4OdAmgB06ip0kI2Cyzeh10mabzDbXZpOEhNxFzGRIM/GRdwdYmxpuU0Ki7P1SNaBNy5CzPnKAtsNo7/uS+2gL0JaSEqAtQDvXl2XlyRPT2xcW2DBsmGe590b/399+m9skIRfefu9Cd2i0TSabGG89ETIYYOu+2qadHy1Lcnu/YG02ADjZ/HF3EZKSkNsImG3OYJudJ0Mq4A2pCIA2gDcYbiUZAZMdyvZPB9pKQoIlSGizwXCH0mKbgTXw1+YMNtxFTKBNAHvSpFC2fmC0icmGpETXaIO5pq7b/QUz2apzmz8FrMFkQyJCHRISrtGGr7YDmMF0IxkSTDd3H6HgGgWoTdcRuibGGtfooQNsgrXaANxIhOTLj2ZwDRhsuIuQv7YeVHOW6T4bwZ76l/LRTv717DLkCUejDdeRsQ1FOiIlJUBbgHYuLs+hhHGBnQ0benzemoEur7wiiYyXVg+OXh85Uk+KJMZbdxkhDbYZXKO7itCSZGjgTcmQOqCGhIRcRnhwDUlHKAESWm1To+0AaufjYLZDBdTAX5tHsHPJCI9cRzclJKqTrZ+eEKkDcHId0RltuiY/bW73F5wECWCtXEh4MqSuzSbArS9B6tIRYrBJImLa+gFo847AGvhnUzKkGVwDyQiCa2gZMlT0OgA39WCgzd1HTK02j2DXEyHJfcTUbgNwh1qOJCZbt/NzPt9ZhiRGW0lHBrYj6YgC2gisYcuQZ1xHvFUEaEtJCdAWoJ0Lqtn1vj2bby9RwjPIO8Lf7PHHJZHxUgXWwT+f7p9tLkPChYSWItUfICQh0SPXdUYbkhAuJeGSklDSEVObbQbZ6P7ZkJDQ4zrgJrcRrtEGwCattu6nTcuQwUBbj2YHg00+2jqjrftn0zJkMNDmgJsH18DWD1HsunSE3Ef0ZEiSlMA3Wwfc+jUYbK7FBvDmjDZ8tLk2G4w2fxyA23QjcaQj3M6PkiEVsx28DIngGpKQYAlSuY3oEhITcAe7jxCTHSqSHR3Jj85SpB7NTsy2JhmB7d/ZZEgFtPu/pZYhHUZbSUemNuNAW3y0paQEaAvQvkSrRVhq2D7riis87/r2pH06dmzMJ95pgQo//yyJjJduh3SEdwLWpLU2NdyQipjX/6TRJgZbj2A3NdrmMiRptM0odriPmK4j8M8m6YjJZOsabQLcClhTkI25/KgDa+o6k61rtMFkU2ANliBpGdLp5DJCS5DcZcTpXDJiJkPyZUid0TaXHclPW3cd0f2zuY0ffLO5lIQAtxlUQ4Badx8htxGu0QaTbXaSkJB/tq7VBoA2kyEV0CZ7P1qONIG1vhxJWm4OsE2tNkWt0+McYBOzPXeuw2yTdES5jvT9dM6PzjIkpCOmj7Zj7ydAW0pKgLYA7UtJEhLu2xMY3aqV55D3A/+8t9+WRMbc0Z0lSO4+AqBt+mebtn88kEb314Z2m6QjuhuJ6mTrp7uSkG+2ngBpupJ07DhqFAD1P2m1QzHZANqw+ePLkOQyQlptMNVcSsJ9tBWDTQAbj4PJ1iPYFZNNtn+m6whJSHhQDa7BXJPNn+mjDckIotanTeOA2wHU0GzD3s9ckuT2fsFJkHqnyHXy00ZQDRIfkQwJyYgDoMl9RAfa8NEm/2w9IZL7aOsuJASwEb2uS0VMjTakIeSfzZciaRmSpCF86dFcfgSTTa4kwYE1+jKkrtHusX+yT49gF+mIlJQAbQHaObqaP5WYuLV+uXIxz3j/6/dv2JDbgPWlLgn5X5IhueuI8zikIs7HyXWEpCIA3DqjrboDnHUpCTHXpkY7lNsImGonGTKUrZ8DyPWodd11JNg/mwC3Yqz1ZUguJeHLj8HSEZ3J5ow2D6zh0evwzw6lzQ4FtDmjDaabu45wyQiSIgGouWSEa7TJzo+YbZPR1qUkM2boy5GK0SatNi098qAaznArZpv8tHWAbbqMKOkIPs/UagdrtEmLrUeyg9EG4AZjTcw2B9ykzQbgVj0U0ObabOoA1gS0lUZbD6zRgDZ8tI0IdnEdkZISoP2PQHv/6aJh86yL32UQZCQJGRa2z8qfP2a8b2KgVnKyZ7wvwv/r77/nRklIbgfWoZlt5T4SSqOtS0ZIo627jIQG3OSbDakILUdyyQhpuSlyHY8DUGMZEow3AmvAbOuJkLrbiMloA4jDT9tcgjTdRswI9k6dYPNHjDaPYIc2mzPbup82abP16HUAbNOFhJYh0ZVGmxjt0ECbXEcgFQGDrQNrBNOoawTVkFREl5KQZlsPqiG3EbUESUuPwV0Ba5KSmH7ZANbcV5tcRkyNtg60nf8fjLYpCeHSEW73py8/pu86ogNqSorkEpLgwJoQGm13GVIlQyrpCJIh248PLR2R81VKKtcA7Wru5zXJk+4N2izqx3mz0u/PTYn6cO4fGfeMvk5GAwLfZ24dBDH3egOBZl27etp6X/Y/8MknksgoXe/Bdn66jR8x2ibwDiUR4e4jun+2zlxz+z9u80eMNrmPcGabu5AoCQmYbDOoBgBbXZt2foheB7MNRtsB0qrryZCIYOfXANi664iZFEl2f1wyAqDNGW10buvHGW0w13xJMtjez9Rmw23E9NGm4Bpdmw0bP1qOVNHrFFQDRltfhiRmW2e4IRmZMQNR69yFhNxGKBkSQBsabd1HmwA2T4YkCYkC3KaUxNRqk70fAW09oAaMNhhvHXCHimDngTV8GRKMNk+G7P/W7L8coN1nK1xHXI12xzEHtre0X/9DE59Z+94/nG9yvkpJXWpAu4j7eOk8BtA+mN6N/aw/6sDcSZa174eorak/hejVo5anjspET+f/x9fPaHDog6Ca8XNceoOgRZgjCale/Qywvnb3bklklP7PTLbPt2EDZ6xNSYmuweZSE74kSX7ZxGRzbbbjOqKkJApgc6b7n5IisQRJj+vSEYpg123+uH+2mRAJwM0Z7WCXEdJo6xIS0mhDMgINN/y0uXSEItmDmWwlHUlvGVIH1HwZkmuzuc0fdx0hYE3LkHwpkjPakIZAMqIz2CaTTZIRXZtNzDaXkEAy0qePKR0hX+1QQTWQjDjAGl1fhiQgrQfWmMw2ADUAdrBGG9IQ7p8NAO1otXmQDbf10xMggzuXjgw4C7RTTjo+2mfs/RzpSNeZo16OsX8ft0x5/tlCCmjvKGPfD58m9llbO33gLOerlFSOB9pXuD2/24v85t5A36lefYfqzQabN/YzcVF3pnxjWU8vi5qZEmdZT30Y5Z3zqd1LRPWaM9Cy9naPapH8HvU9d0bVTu4Z3M3Pw/+Pr4evj3/PHBwYFOr7bHq/Owg+0n+OIsbPmfMGQfOiI6b6mxUu7FnqrRRYffvtnmne0YFaJ05IIqP0zNr7pXdtBtJw4E3R6wpIk60fJCS6NtthsM0OphqdM99cq83dRdJ3HSEmmzPcDmDmftqmrzbZ+hHgdoC083Fdk03uI5CO6NpsYrSdj3NbP85oc+aaJ0JS9LrSapu2fhRUQ0uP+jXZ+QFoc4abliL14Jr0/LTJR1tdmwCbEiPBYAcnRGIpEp0z3OQ+Qi4jenCNDrghFQHghoSEmGvdTxsMNvlnk90fAmpCuY0EA26y7wNzDZu/UBptAuAGs+0C7X4/2//+fLunJk8+3MD+OYtOP/2SfU71KDs54dkb7NfJpjHPbbU/v90tcSdWfxQMnOV8lZLK8QD7MgBt9wYq4ALsiP+oXnaV6te1c4UJC3CD4gbefUVUvtmdLGtXbOTxWfaA3bEj8vBM+0DYXjty7YwdlrXNF3n/jHqWtXVV5NzpmzPu+Hz8//h6+Pr49/Dv4/vBoHDh6M+q1xytepm9qod/6w6Ck/ofGJdl60HgJDLGdvM9Gvhh8GBPuK+Wv9s334gkRPr5Ae1gyYiu0aagmtASkuCAGgBsSEV4MiQ+jzPXpu2f0zt0gIbbTIgEgw0AjmvdL5u7j/Brkozo9n7EYJNG20yC1N1GIB0JloyYgTUA2OYyJGe2CWgTsAaTrUtFCIBzH21HUsITISlyHUCbXEf4MiQ028FAG5ptPRmSS0b4MiQBcFqG1BMhlfsIZ7B1yYgOuMFcO0Bct/fTmW0sQwZrtInhVgy2LhlJT6sNgA0mGxIRAuDBkhE9ch1+2voS5IBV9uddZ1/fl/L76/b90ffw7Omv3mk/T4nT/3rRBrbdK0664qny9uut2KglgYX2fXJdXNUnJtF5JuerlFSOBdZnAfZl+o1wpXtjFHJvlKK7VK9wg+o3JKreOt/2Y5F7ZjanG3fT+GLLZtiDYmG/msdusw+wpCLN73+4gj2ARrb+amkf+6A50Lnxqjssq0XFXrdutAd8g3yDw7ba0LH6qbjnd3Wga3wcn4//H18PXx//Hv59fD8YFK6gYoPq1/tVLzdV9cjXVS/4k+p5/3b/8s4T+nn69yo62gEq9et7wr3jAqMPHJBERukXSrPNmW0C4ME2fvo1Md2hEyKJydaTIsltRAFsxWxDm236amMJkmuycQ0f7VBAm2u2YeuntNm66wgB7WDpCJeIcKDNNdpdupgAXF+GNIE2j2KHdITb+5GdH1xHSJvtdFqCDB3FTn7a5DpiAmy+HEnuIiQtURptc/mREiFh86cvQ5qBNZQUyf20uV+2rsUm7ba5JKm7kBDADuWj7biN6ImRZgR7cFBNqMj14MehwSa3kTOfZ6Vab5ymJMj+q1OT36xp9x9tAJ9qfz9fzraOXGn/PFXtP0D+tJ+H2KmPvjDO/j3Fjd+5O8Z+vbZNyvuk17Jajx/Wd8kHdJ7J+SollfMB9hUuwM5jMNkH3beCxrtvDS12NVklC1Ut80m9GoOaTptWr9ddY+iGrblwxH93dbOsqlUTEpyD5kJ3/Hv49/H9rAyUfiS5HwbBjc+q3mCT6pW+V72E+5ZXYZexz/eXOxCM5+fiDwSltS5WLOa/3qf9Ax95xPOUr0mgxN9/i/2e9KxmtJVGWwfYpm92KIANTTfXZkMqwjXbof2zye4vVCJkMLDWGWzSaCvATcmQBMC5VASabL4cCcANCQlnsrEkSRHspkZbX4LkNn+6rR+02ao7y49gsJEQqS9DEqOtA2ulzXY6mGxTSsKBtdkhHXEYbSxDcslI9+7EYJvLkdBo61HsFGTDJSLBAJtcRgC4OdPNmW1IR9AhFYHrCCLX1RKkKRkBsCZ7P85kcwmJYrJVdwA0j16HjzYH2nr0uq7Fhka7H5hru58B2qtSk99wGOwfUma8bgPsftH29/Gu/XO86zLZY6ZHvfh/9vNXZ/LKZx+0XzfxY/tts3/OG/smVFhT356DU4fUfmw+nWdyvkpJ5ThgDa1U3rzuDeAuKxTKo7/lU+pR1SteXqxj4yhf/34bKj088Ob1EQdrV22TsH1PZ6vhxbrhz7l/nzB9T4xlVfyk/9rVj78WH9Ww7ujBK0e8pn6eWle7f3nX1xn7q37SNWV4fvB8XbjB0NuuDRsuvzxmha+T/8Do0Z44byv/zP/7P0lklP5v+WqH0mSTNpukJRxY82AaJRVBHzWK2/2RdMT0z4a9nwLWuCabP5PBJls/k+nWfbV1bTYH2Fyj7QBp7jZCjLbObDvSEABunbmmCHbTT5u7jXDpiNkVwNaXIp3HlWSEmGveHYZaT4bUXUfoWgFuJEOavtnBQBsabQLauoRET4Y03UcgGQHght1fsGREB9y0DKmu+/UD0CZXktCAW3cdQXANAW4zAVIProGPNrTXCK7hUeyw63v9tAqieeMMcz0n5Qxz3THl5Ot97X538snX0tjS49hZPx+0Xze9N8+YcmC9/TzOnhK+b7r9e+0/vvMuG3i3KuEbsflRy6rTPW5XYKZ9fo1LOLRnRDY8V3Po+Sol9S8A7CuvdF/w+d0b4CrVo9zPL/Vu0QcbvZfwfsvHK1qD4tcP3/lQ1Q4J+/fEWSWy7Y2fUb8x4ak9/azKFYcPeH5N4p7Po26q7xlas53r/1l2njsQPnf/As+jPz94vrJ+IEQfT1oTOBgb66nlXeo/8eabksgo/d+QigBQh7oO5aPNgbfuNoKlSF2bjch1dJKQoBOg5sw2dx1BcI1isik5kjPaXDICYA6AbWq09aRIch2BZhsAW0lF8HEw2yQZ0d1GyD9b12hjGZJs/ngUO5YiTT/tYBcSRK+TnZ+eDKmAdo8eekIkdxsxkyC5Nps02bpWmxIhlZSEJ0Xqy48kDVHXpjbbtPmDhps02jxiPf2uA2wuGTFdSHRtNi1BgsHm12TzZyZDusDbmnMGYA9AB3PdMdk6E60emzzz8Mf25yUnT3i1oX1dZFbSQfvr9LSmJ7xoP95jzuSf97WzX6+/j1m2u6Jl1W+a+Oj2OPt8mp7w0Z5ZOfBczebnq5TUvyENcV/QBQuqXqSI6sWKFb6+/C/Nb6qWp9LGganrC67eWfXp+B93336qZI698TPqe+KP7p5xqk6lwQN2rn1obdWrll97d5PX4aZSPI/+/OD5wvOH5/PcB0KLsPh7n9xRtqznA1+M/421ayWRUQBvdoxkN238HOAcWkJCNn4mwOZMN5YiaTlSt/cLBtgm0NYBNy1F0hKkLhnRlyO5zZ/JaHNmmy9Dco02Itidx7HsyP204TZCtn5mgI2ZCGm6kABo68mQPLAGgFuXipBkRJeO6MuPPKhGabP1pUgw2cRg68Db0WgjGZL7Z5vJkKTV1gNquNsIt/UztdjO8qOuyaYIdu4+QoB69mwlFSHADU02liR1mz9yFzHt/nQXEQBt9/GzDHaKxmD3/WXObEca0jd2dooDsPscmT3m4GK7952e8lKs/XPXnTr6+Ub27/fhCceeHm9ZjY4ntdo127Kq3ZIwePdvl+C5+i+fr1JS/yLAPisNKeRqryNcDVWJYqubvjZqgMdT5c4R923b/eGle+Nn0KvMHTFx26yPOhZLaFpmZJHYPHh+9OcLzx+ez4wHQofKY3bs+ChfPs+viW8EBs2cGfON95PAoOPHJZFRenbRaOu/F2Ky4TYSOqhGdyUhzXZwUiS39eMJkbo/ts5wO64jsO9D59ptuJCQfzakJOSnzTXalBQJZnvMGJPBVsy2YrJh80dMtp4MSUuR5KMdKoodkhIKrJk0SWm1TWCNCHbdbcRhtNGh2ea+2ZzhNoNqsBSpLz2qjzuA2gTaKpIdnez9ePQ6abVNFxJdMsKXIyEZ4UuQDqDWJSSmrZ+5BInr9CLYdaBNS5K6zR9nrvVrvZ9dfrTmnAHWYLL7rUmZ4zDY/X5KTjky35GGzLIO57f7yFnfH7Rfn722TEs5sMh+nldN7f3cnfbrqOa4bntGW1btXt6rdje25HzN4vNVSiobAWxIQyIjXWlIqWt+69zytqNDhlSNiftg5wvHjuXWARDUm8e9vXP3MQvPD54v/fnD85n+QIi9zhuR1vCmMM+73rsDBT7+ODfa74kkJOclQ5J/NgXYcCDOJSMm0DYj2fXkSEhHAMApKRLLkUqTnVFgDQFvXbMdWipiLj86H1cR7PDNpmRIbu/HpSLoplTEmRdguAG0zeVHB3ibbiMIqlE9fT9t3c5PuYxgCdKx8+NuI87HwXCD0eY+2t26EbDW/bRV54E1HGiTdISANTokJADUcCNBYA2XjtAypALeJB0hwM2XIEmjrUtGHMAdCmibPtp8OdJ53AHQyl+bXEd0ez+Sipx53AXW/dFXz0lxAHbfXxTA7vPVLOvVcLtfPSPl5a/P/NyfvrjNSXic7Nv3pWW1njzGs+tny6pRPWHm7hZyrmb1+SqAWyobAuyoKNWvvrr8zL6fL595881VJyXU2X3d33/LAEinu88Pni88f/rzSQOh0UsDOy9tVuOemEaJv6Zt3tnBE5Zo2bjAOtslkVF6tuxer+M6AskI99XWGW5To00+2vDXDpUICS02OpeQ6EuQBKS5ZtvpJoOtrmk5Em4jcCExgTZcRxTAhn+2yWTD7s9cikxvGVIx2ybwDsVoh/bRhn82gDeCasjez9Rqc7u/7t1xTcE0enCNAtzwzwaTzZltBainTjWTIcFsc+aaliCnTePSEQ6g9WAauI9AMoKEyGBmO72lyH8C2MRsK+mIcw23EQWssfyoHqcIdnMZ0vDVtoH1kdMkFQlmsGf/5TDYfa6eOfmlY/bz8te0sS84PtiVJ9/0dE/Lih45qtqu9+zz46OExN0j5BzNqvNVALfUvwi0zwFg7+6zZMk7CxfKjX5+Hc8fns9SqdVfbdn5mjZNPhqyf+XGxdWij8d/v+mTE5Vi2iS8vPkby4p5LvGhtM6XLtCWRMZLVUISnACp2/xBm43PTz+4BlIQ3dYPy5CQjgRHrwNI6wAb2mzSaOPjZhS76ZutA24C2FybzZltnhAJwM39tBWTDTs/kpBwbbbDbHM3kuBkyAkTQiVC0jV1zmyDyTaDa0zATW4jYLCnTAntMkKa7VCSEXP5kYJqzKRIfRkSgTWmZMQB3mZgDU+EJMCNYBqSkvCAGh5go2u1dS02+WfrEhLuNgJ7vzOP2wD7yBmAnZx6pLbSYANgOwx27yozUhTAnpry/M/281RwUuIZgN1p5NqddeSczKrz9fwAt5TURQHY0DgRwC5bo/PhO16Nj3f+gtxzvTDY/8tf4M7zV71WnwWPHHjsh8b3D+q85NX/Lm76wbCrV1e1rOZ3jTi2IZ89cBfF373JHuCXGuCWRMZLd/lRl4gEA23eHYCN3z9PigQAN91IsCzpSEb40qNz7QBrRLGntxQJZhtMNi1JKgDN/bRNrXaoZEguLVGAmxIiQ0tGgpciuY82NNvkpz1xIpht02WEM9skHVGAmj6uGGwC2GZQjRlkQ1ISngzJ3UY40KbIdcVkc202gDfvpMmGVttMioTLiL4UyZMhwXDDRxsA2/m4A6B1Zpvs/VSQDaQjpNmGVhtLkarrftpcq82veVANZ7L7gslePSfl9VpKInJ4kdJgnwHYc2b+9or9e+tZcNpYB2B3rzwx5anRltXy99HNdg46w2DH7xku5+T/er4Cr4QG3JnVcEtJZYlUxLTpw9YulgpKly7V2NN2Yo2OHau8GL9r19rjx+WGzqL+Vvy7uwZYVv2GA6cta2lZTSoPbrO8rWU16zPsuzW324D7cFz/DfbnRb8U/+eT822gPT/xhi2PMqCdwwC3JDLmlgh2rzcjyQiXjgBAcyY7lP0fJCRck20y3mC2OZDmzLYZYAPtNiLZddcRAtrcN9sB1LD3A2MN9xFISaDR5sCbL0GaPtq888AaHWjrABvuImZCJGm0aSkSUhIewQ6tNiVAgsEGs00R7ADanLFGN5ckKTGSbP0ArPXESLL140w2AW6SjnCpiOk6Qsw2NNozZ4byz6YESNONxLT1A6NtarN1jbaTFKkBbRtgv3Zm2TFZMdmd5/z92kC7N5udcuhr+/t7f8atrzxk/7zPTEt5Ya39PCVO+uaZavbrtsaY9jvs56OalfDZ7pflXMyypUkXrwC/AM/o+MZ0KQEeEimJVJYy2TB6L1BA9fBw1UuWLPJira5dXmzQoOplcXN2NP7qK7mBL0yvPivu6Hb7IGtw98ABSxbagHvFkKIrNtiA+4HhPdbG2ED7qrjnNo62gfaVCcM2N8w5zLbY7+W+ZUhHow1ATb93Yrp132xyHwktGUlvOTJ9Oz90BZwV4IZkJBhom8mQYLbJbQTAm7uPmEmQJBEBENclI7QcqTPYFGRD0hBosk2pCK51jba6RkIkabMnT9YDa3QGG8w1ADdJSBTQNl1HevTQgbbzeaatH49e50E1kJYoCQkAdzDQhnYbmm2T2YZGWwfiWI7UmW1irNXjJBkh4A3/bESvg8nm2uxQQTWm64jmp+0C7L5rlVSk3/2zrVft33PfmrP+eGWC/X2Xmn7sxRn289RxkrXP/jodfx7Xe+dRy7quX2J/xwdbzsML1F38AjwDfKPjHeAf4CFhtqUuqBa7WDHVy5WruGBQofXbAwG5YS9SRO2XQ2dsKmdZjb4fGPO4fWA0HTS000r7gGvebcSi9b2yv5REEhmlqwh2MNrEZJuuJLq0RPfVJj/t0B32fpQMGazRDh3BrruMkDabNNkA2pzZJobbtPcjrbYOvEP7Z5vLkLDz41Hsumabgmp4IqQZVMPdR/5Zm23a+qGrSHYkQnIfbVNCwpcfEVRDEhJTo00uI2bnbiPEaM+cya8psCaY6dYDaoJ9tBFkw4E2X4o0I9jBbCummqQj5hIk12rjGlKRvmvnpLx2PUlFyE1k+m0HTtk/V5spKc8Nsn8f745PORMwMyzx2e1vyLl3sTrwDPCNjndEuy11UaQisMMpU6ZEYvThSfW7davaOeHQnsmnT8uNepF6fMLhPaMsq+4zAwosLWFZjdcOmrz0c8tqVmrYvNXvZ18pidjvSQ/lMsLt/HTmWrf945IS2PnxABtISBwtNgC3ch8hOz/uMgLmGsy2IxHRlyH1TtISaLcpGZK7jjiPA2hzBjsYcOtabdM3GwmRkI5wzXYoP20nih0AG8uRoYJqCHgDYEMyouz9eFANl5A4gBpdT4aEvZ9itB1mWwFp6nwpkoC3KRkhjbaeGEnBNViORHANtNkA2jqDDSmJDrQp2EZfhqTgGgBtPbCGJCXBy5BmQI22DGlIRfp2mX25IxVxEh0dqUivz2emvOREpMdP++n5t+3n8ZUJ1lOp9uu9wKjW29605/3chK/33Cnn3kXrLp4BvgHe0fGPSEmkspTJRmQpEpXwVkrFipXWD124efYrr8gN+u/0Gh2H191S07IaHuu/9NEwJiV5a/ietT/bQLtjfA2H+f63mG2RhEhPz94vPQYb16GDayigRrf1Iw22bu+nX5O9X7DrCAfcPIpdMdj4PEhIaMlRj2LXfbSdJUkTUOtuI6Td1hMi9aVIAG6y90Mnn22d2QbQDma4QwNsMNjBzHboJUidyeba7FAJkZQUCYBNATXcjcTUZjvJkADWANxgtLndH1+GNLXZup+2yWyTu4jOdJuAmoA1JCQ8CZL7Z3NbPwDtPjbAfs1lspWryOx5r9rAuc/ts1IOtra/r/gZE1/sf0YqUvzpE/bvb9y4Idv+sqw6nsROO66Xc+7f6sA3wDs6/gEeAj4SZlvqnIC2yWSbriLXXFOm2I0jFvzg88kNmT16na8H9Fs2zrIa1xy4eslsywpyJUmP2ZZERun/CqOtJCMO4ObR68GBNeQmwrvzeOgkSALgPBky2FUEHcAbLiM68DbdRchP24xip+h1vhTJbf9Mez8OtHkSpOpwIwFzbXZKijQlI7pmm3y00fkSpJMYGWoZ0gHWpnREabL1oBpu64flSA60udsIl4yQn7Zp+2cmQOoR7D17kmQEEhElHQntOsIZbm7zx4E1lh3Na6f360c+2nwZkoA3AW1dQhLsLvKaxmS7S49zZlgv2UC8R9mpKfuL2s9/5/HW7kjLanGH7/HAFDnXsksH3gH+Ce1Kkh6zLSV1Xkx2pUqV7x32VKDSBx/IjZhNliQThu8NRFlWw639Gz1y08VjtiWRUfr52vv9U1IkRauThp/7aIO5ht2f6UZCkeu6+4jZyfaPNNzmUiQPrCEpCa51zTZJRxC5ThHsSIYEkAazzZls02WEpCTBy5Cm+wiANOz+TB9tRLFzYM0lImC6eRQ7GGwKrCEJiZkMyd1HEFiDREhitCmoRnVcK2BNy5FmcE36iZAIrOGdM9vchYQi1xWQ5n7Z8NXmriPOEqQuHTF9tBXQNqUiANx9rdlKMrJm9lxHk93nN53J7jVh2h2KyZ787Rkmu8QYa3tey6o1PqHWju1yrmWXDrwD/CPMtlQWuotAg4S/3MqWLTar0ZIRpzp1khswe/a6v/cv/OjtltXYN+iqpdczZtvVbGeVG4kkMkr/3xhtSoTUAbVp74fP05cgua0fgLS5/KgDbALSOsCmridFklZbt/WjIBung8kOBtxk68e12VyzDYCtugLSPAnynwA3AWwzGZK02QpoT5oEwM3t/Qhw664jcCMhwK1HsHOtNvfRNqUjjibbeRwabbiQcHs/MNq6f3ZwIqS5DKlHsSuGmwNtndmGFlvXZnPXEdNPGz7a3NaPL0HqS5JwHVGAG7Z+Z+3+XKB9VjLyyOzLHXcRaLJ7lJ1y93OV7ed79fhHd39hv+4Pjwz3N5FzLLt24B/gIR0fAS+JG4lUppYfsU1buLDqJUpAo3Rt/54PPdLivvvkxsuevda4gSdXPso0258OmfXEIBtoR42osO4J5kZyjsuRksgoPavt/Xh3pCSmZASAnEet86AancEmaQmi15VkRD3uAGcdeCsAbTLZPLAm1PIjtNhk6wdJiR7BHqzVpuVH3Ueb/LN132zTR5ukItBoc2Btuo6YGm2SjCjATUw2gDUtQXJttnPNATYPqjEZ7dD2fqZGWwfapusIMdlIhjRdR6DJJrcRAG4zkp0nRDqdLz+G0mTzJUhu86dHsutLkFyzDdcR2PedAdgA2q5kpM9Xs/IeLGP/HO9NL3TgOvv52T055ZlXHU32mOXb37PndZ+E5/0N5RzLrh34R9dsAx8BLwE/yXKk1D9KRuATCaN2JCVVq1a5yLCqaZveeUduvGwqIRkyvF+aPbAb7O774IMLLKvxV4M+XnYfBduc9dnOQEIiiYzSL2YEO0Wu03WoxEjul82Zb5KIkK82vwagDvbVBtAGU60vSZK9n4pgp0h20mRz+z7ObIPB5kw23EagxYZvNgfeoRhtB3Cn55/NpSLkPkIAmydEojsAGxISMNvc5i84CRIAHJIR8tPmNn/QakMy4iw/hgqwcYA0ALfOZAcvQ/IlSGiz0U3JCElHFGPNNdv6EqQKqgHAdj6uJ0GiB0evA1hzJpv8tF3N9tnlRyUZOWvjV29G+Msz7O9ry7SU/fbP1S1mwsNO0mOnLaOstM8sq9Y7Cd22/ynnWLaVkLj4B3hIx0fAS8BPIiGRypRkpGhR1cuVCw+vkdSpU5s2YuOXQ2z/1vf59ME45rP92NCtqyZnLCGRREbpF4vR5u+MUCQ7uYr8E9AOtRzJpSOUBAmG20yGNP20FcNNATb6NQFoHWhzez9osTnADpaM6PZ+FMUO1xFisKHl1iUj6uPQaHObP67R5sE1SIaEfzY021h+VAy3Atxgskk6AiZbMduhkiH58qPZHaCtJ0GSr7a6JmDN/bMBsJ2Ph2KyocEmH21dm+0w2xxgk3QEUhEKruFSEfLRVtpsMxESQJsi2E1XEkhGALSTUw/Xsb/OktmXH3rKSXxUkpHuz0+JfLan/fv5dXzKrlj79X/Yd9uTDc/Y+B3dc4ecY9nd9g94CPhIx0siIZHKlMsIDNlJMnJNya4L7pm8YIHccDmj1y4+IP/ysBASEgTauC4ksXMSb9j8uGW1tryWjXcEAEq/qMuQZvQ6SZPMaHViuvXlRyxFEpBWUhEC1PpyJFxGKIKdS0lIUkLBNTqjTbZ+XEoSCmjza54ECdcR3eZPdx0x/bK5RltdB/tnK6Ctu5Bw9xEOtAGsKbjG1Gbrmmy4jdDSIzHaevR6sCYby5Cm6wjXZhPgJqkINNqQkABwc+DNpSLc1s+0+eNMNq6dbiZB8sAaAG59KZI021iG5BHsjsuI87hj53fYBtp9uiXnOTzYcRmZueiMy0iV6bcdyG///Ksm3b/P+X3eoyQjTTclrk+7Qs6tnNKvKXnTfXfNX7AgtIQE+ElcSARgZ8plpFQp1atWrVCnd++lVz7xhNxoOaNf9/LAH1bXs6wGf/Y9/VAjG2iPGLxp+Z820D6gXEhaXJ9QYX19G2DXS3xx/R923+t9cGN3AtwAPP92h03ghegOIMupHZKei9kdoJpVHe+ctGrl9Zofd4BvqGunOz+/ulZMtfO4spPUr+lxXCcl8e58vgOUecfHzcdVHznSAdq4ps/D4/Rx/Zq6A7xDXTvAu3XrUaOc6zZt1ONt2owapR5XHzevnc/nj//Txx1Ab3bn46Eez+jzne78IUAfHz0a16rjWvXWrdHT+7j+OK55d/7AcD7udFw7Xxc9vf9P75n9vMz1Vq1CX7e0RlrbnXcGnx553/Yb7d4k6amt7zvz1ndV2knL8ixLWLjJfl1HXzm86+oFzlwemPToCsuqHTs475r1cm7llA48BHyk4yVxIZE6J202kpBq1Kj4cP9fVm3cvVtutBwS0V5n8Kp1HhtoR/d56YFrWXLkOWq1pUuXLl16Jrs7PzFPMV8xbzF/MY8xnzGv5fzKIRHtLh4CPtLxkmi1pc7Jzg/G7LVqVS44uMHGOa+9JjdaDkmMLDq05qYtllV/bu+77ssfIsgmi+3+pEuXLl2AtgG03fmKeYv5i3mM+Yx5LedXDlmKdPEQ8JGOl8TuT+qcliCvvVb1OnUqxw4f6X/viy/kRssZvVqDEaX8b1pWvRd79bv7mGU1enLAO4+XzPxSpByc0qVLl57FQNudv5jHmM+Y13J+5RCg7eIh4CMdL8lSpNQ/LkEiSrRYMdUrVFC9bt0qS+O77vz6t9/kRssh/YH4sTvX2YO8fc9b77rDHuw3DMj7aMAe9IOGdlr5XIhodgHa0qVLl541QNvNKcB8xbzF/MU8xnzGvJbzK2d04CHgIx0vAT+Z0ewCtAVoa9uyxYvr27T16gnQzqFAu2DPCos/JPeRpuWGfLkyPNh9JCjARg5O6dKlS88aoO3OW8xfzGPMZwHaORlo16un4yXgJ3EfEaB9jkBbpCM5VDoiQFu6dOnSszXQFulITpaOCNCWyiKgXek/g57bsOHIEbnRckhC5NtD9m/8W4C2dOnSpWd3oI15LedXzujAQwK0pbIUaFcs1G/eEwWfekputBwCtP2D3l79vgBt6dKlS8/uQLvG5EGj11STcyun9PIf9Tu14ra9ewVoS52D60jGy5Dlw3p0eHj4unVyo+UQH+3o/gOWv2QP8hI9Gy4+JcuQ0qVLl36xXUcyuwyJeS3nVw4B2i4ekmVIqSy19ysztkPlW7rdcYfcaDkEaL/aJ+aRWfYgH9pzy12v2YN96oCZj820B/3woT1XHhF7P+nSpUv/1+z93Hlc795el9891J7X3/YZ/circm7llA48JPZ+Uv8D0A4OrLmqT4UfY9J69qzaOeHQnsmnT8sNl017XMLBPYmWVbt219GLHrAH+Ve9Ft9zkz3Y9w748fEW9qBfNnTPqlR78N8z4rcNRQRoS5cuXfpFA9ru/G3068AOj39iWfVL9zp6z+f2vJ7b9c/bbj4zvw/t8ck5lm27i3+Ah4CPdLwkgTVSIYF2xhHsqjdrVqn54F82LfvwQ7nxsmlPG3LnpkKWdX3cTRELxtpA+3CvhHvy2YP9pYF5Ho+zB/3aoQdW2QC8+X0j/txQ1D4I8iWM2NzE1RQ+JkBbunTp0rMMaLvztfmRuMEb9tnz9/Nh1VZH2/PYGjhkyWU20B7Ze+S9L9vz+oWb/Avn2fP77SGvbJoo51i2XYJ08Q/wkI6PJIJdKlNAO39+1YsUUb1UKdWrVlW9UaOyJ29qf+eWZcvkxsumtn739fz2gb2WVftU5/j57WygPaPnh3eXtgf7kgF7H/veHvQTho5Zecoe/P1GPLh+lGVF3xH/wKYP7AOhbcIrm787c0A8nHaTAG7p0qVLP9eO+QniIvqV+JNP3mrP2wdGnNxQyp6/3wyru9r+eOPwgdOWXG8D7S69o++dbgPt527auHCGZVXP32vTQ4XkHMuuHfgHeEjHR8BLwE/AUwK0BXD/o/tIiRKm+0hEWM2NN/UeNkxuvOzZW89pNndGSxtoV+x4IvV9y6r7Y4+fF99sWQ2f7d/pkYmW1eS5IR2euNIe/GVH1F+3zz4IusTX2VRdA9q6hEQAt3Tp0qVnisnWXEcU0D715CJ73j444u8NZW2gvWXoO6s2W1ajUQN8jw20rHonewXuud0G2l07/7SgoWXVyNex8dyr5BzLrh34J7TbCPCSuI1InddSZLlyqteurXpMTKV9Q+7aXP6TT+QGzB69yeReB9c9bln3/1Rkfnxhy0q97Npfxu+yrFbVbhx48xeW1SCpb+QDSy2r8f2D+izdZA/8b4c1XN2TJCTRneOv21TJPiDaJLy8+RuypxLgLV26dOkZAGtIRTA3XclIdHjcgY1TLKvZJ8NfXRd+huho/0Rey2p4W79jDztEyB89L1u82v78Z1o9knzUsqa2vGa+ryLNcznfsolkxMU7wD86HgI+kiVIqf9Jq3311apXq6Z648YlbmkeP/ah5GS5EbNHH/t+1XdntLKsR24r8ru3imWtfjOi+rhEy9r0eNShqUnW7Onb63w7v+/xgs2b9nrj/p+/7tW46aBCSxd+cbJp16ELVo77/IZm3424Yd3lnz4SfXfc6xsf+s/v0W0S6m16++PtMaUTJm5p9tG4mA2JI7Y8+WFnT3Nv77SKH1SLWeEtk/bQe1bM994H/UnvWp4U7yD/Z++8E/OZt3yg/1tveWp5l/pPvPmmZ7rvGv9jb7zhedE7IjDl9ddj3vV+EShx5IinkreKf/trr3nGe9f4ex4+7Nnnqx6o9+qrMYe8Pv+RQ4c8pb3f+0cfPOjxeWsGurzyimeXd7P/+5dfjtnnq++/+aWXPOHecYHRBw54hnl/C+R78UWP31vHv+KFFzx5fbGByvv3e/p6p/qffu45zwZfmL/3s896TnsbBFrt2xdzwrvP/+Ezz3i6+Dr5xz/9tGelNzkw/KmnPH/5Cvn/2Ls35idvU/8de/Z42npf9l+7e7fncV//QIlduzy/ehf41+/cGXPUVyLwxI4d9vMQG2i4fbvnfu+b/gPbtnl+9Hn9fbdu9dT1VfR/5fd7bve29U9OS/N84/04MG3LlphDiX8H8m7e7KnqfcB/75NPeub76gQe3bTJ85m3c6Dqxo0xz3j/6/dv2OAp483jb7Z+vWemd2mg/bp1ng98Mf431q6NSfP29Pdfs8b+uX8NjF692n7ervT/umqV503vOv/0lStjVvg6Be554glPov3zPrJ8ueeQt1Bg57JlMfd6A4FmS5fG/O4b6N+7ZIlnkHeEv9njj3ue9xUODH3ssdjrvBH+Tx59NOa/3qf9Ax95xNPdNypw88MPe/Z4RwYuf+ih2Cq+Mv45Dz4Y86G3RGDLAw84z0ugxv33e/y+ZP+K++6LvdY7yV/q3ntjDvlqBrrfc49nnfcdf7O77oot7bs7MHPx4pi93mT/j3fe6VnqrRRYffvt6LFRzuvgtttiNvhW+RcsWuQp570l8Oatt3rut3+OFrfcElvIW9O/8eabYx72/uwvtnChJzzxlcDoBQs8i7z3+t+ePz/2Ct8Qf7N582IWeusGHp071xNm/9xWaqrnlP28HZwzJ2a8b2KgVnKy+n3Onu0Z74tI+++sWZ5fE98IDJo5M2agd6N/54wZMZ/4bvVHTJ/uifO2Ctw5bZrnO+f3N3VqTJvEd/3NpkyxX4+7A/snT/b08i0PlJg0yfl9+b0TJ8aO8zUK/DVhQszOxI8C7cePP/N6eWDcuNgkb5/AnDFjnN+H/8Do0Z4GiZ/5C40aZf8+PgjsHDkyNt73rv9EUlLMbc7vwefzVPLFBX71ej37Er8J1EtMjB3ivO4TEuzv/7e0lfHx6nUeF6ee7xEjYvsm/pj25vDhMb19YYENw4bFnEgq5f9w6FDndezPO2RITOPE44ESgwY5r1N/s4EDPfcnJm6tP2BAbHvvnYE+/fvHlPTt8U/u1895Pabd2beveh326RMbm5jo9/fuHX3cuzRtf69eMWm+TwJHe/ZUr7MePWIb+jqlnerePfqw8/W6dVOvq65dPYOSrvQ369LFeR1tvfWmm2LG219nTqdOzvORNrZjx9hrkxoEPujQoUWYt6z/QPv2MZ18d6dtuvFGTy3n67Rrp14Hbdu2CEtKSvu5TZuYit6aW+9v3doT7tsTGN2qVewV9tdr1rJlC/v3u8Vq0SL6eNKawMHYWPV79Xg8v/q+T2sVE9MizPl60dExh5L+L+3OZs2c39PW1U2b2l+3cqB9kybR8xIT0z5t3Nj5vWyr0qiR51DCuMDOhg3t78v+PTRoEB2dlLRlS/36zve/tX69eur5rlu3RVhC7y3WDTc0W5/Qc8upG/I0/9Y7a3P7Onmafz3iinWvXf9288+Gn1i38/oNjRIHTVlZ+/p5jboN6vLwVdc3rn+sZ4l7RtbZV2dj57ap2+qdqPpKixXj8zfOW/7rRm8NvdzTsk7/Gju63t313UV/FB/qvX3j6VURESvGvneqG+Y35rmcb9mjA+8A/+h4CPhItNlS/wi0TQlJvnyqFy4cWkIC38iWLStWHDhm7WVvvik35L/TPeu6rF/+jGXd858ijYb/bVlLq4QnjfRY1vr1EbdOOGFZgU8jx06vaVm7X466evYRu/eJGjN71deP37+pyPK4H30N3UHh/v6L5dE1ZvjLHK8H/IWO14k5QGSQSElJXernJOYe5iDmIuYk5ma4MVfLvH7X5UWihl07csm2oZH/N+Omb5phPmNeY35jnmO+y3n373TgG+AdHf+YkhHgJbwOTMmInI8ySP5RQgK7mrJlVa9ZU/VmzSIerl2gd+/Ro8X27yL37xOm74mxrGmfl4sad9yyHoou8lTCI5a1cmH4T2M+tKzNbSJOTomyrO3HIvfMbG5ZT5WI6jVnoGXt+yFqa+pPlrW/WdSP82ZZ1s5RUTNm7nrOGjfrqriOPTwe9XstWVL/vWOA4C91DBL8xS7AW0pKKrcAa8w9zEHMRcxJzM2SJcdsv6puh0qxeXZMixo+s/h+D+Yv5jHmM+Y15jfmOeY75r2cfxfXxg/4BnhHxz/AQ2LnJ3VeQDs9FxIAsEqVVMcyQMuW5a/r/dLS6vv2yY16cXqHZm0LPjSdmI8lw8P7JO2xrHVHI6ZMmGpZgTKRA6etsazdV0Tlm93Jsp5eFjUzJc6ynvVHHZg7iYD2/tNFw+ZZdu9adNG8e/76a5MvcuTkzffdV/elfGUrLa5cWf1+ESmLt8aw7IHXB5Y+zLfKBHhLSUnlVGBtnoeYc5h7mIOYi8WLY25ijj53a9Ep8wr9dXbeYv5iHmM+Y15jfmOeY75j3sv5d5GSH108ozPZwDvAP8BD4jIidV4Dx3QhQZSoGWSDv+yaNs2/5+rrr7+9X78q9YYPCfT47ju5YS9Mr9dywPeb7YE7v3HxWxLrWtbDeYq8nngNMSFPpkb8d/JiYkr2do9qkfyeZe2rHrU8dZRlPTcl6sO5fxDAfv75okXnzw/uz3xWtERq2NGjD5wIXxD/QVyc+j2XLq06lj5EYiIlJXWpMtfpSUIw9zAHS5fGnMTcNOcp5i3mL+Yx5jPmNeY35jnmO+Y95r+chxemA78AzwDf6HjHDKYxo9bFZUQqS5ltaJRuuEH12NiICTXb3TR3zJgq3eJSdiT98YfcwFkUqd5+2F/bXresaWXLnh49xrLuSywyOC6vZS39Lnz2yP1Mk32OTHZ6QNvsO5dFvTCr6759Y3+66nD7W6Oj9ddBehITk+kW4C0lJZVdgbXJXKcvCcEcxFzMaH6efecwk8z2Wc22O98x7zH/cR7I+ZhFANvFK8AvwDM6vgHeESZbKksHkcls4y/6yEjVkYSE7duG7nJd69bFeze7fuSGBQuqdo5/ZfdE0W6fvxY7ftruaMtKml6t+1R7AN/dq0jEsN8s67Gi4WV915O7yJYCkUWmPGhZO3ZEHp65j2my02GyzxVon+2lii6ZX+rPPzd+HHHN5MF33XXdl/m6XdMKb6WJxERKSiq7A+tzl4RgzmHuYQ5mdm6ac9dktjGvMb8xzzHfMe8x/3Ee4HyQ8/J8tdgKnwCvAL/oeAb4BngH+Ad4KD0mW84xqfNitvEWGgZRsWKqw0fyuutUb9JE9XbtygxtP3nBlZIkeb59wAsNBs5/x7IWX1n4vaFJlvXwi0W+TFxhWU88G/7xmD6WtWlvxDuTC1rWNl/k/TPqWdaeO6NqJ/e0rGfiou5M+eZ/Z7Iz6vvGFm2VGvbFF/cdCn83vuPw4er3LhITKSmp7MpcZ14SgrmGOfe/zsv0mG3Ma8xvzHPMd8x7zH+cBzgf5Lw8vw58Aryi4xfgGeAb4B3gH9MUQJhsqSwB3BhQeEstPFx1vJVSoYLq11+vevPmqrdvXyZ/h8oL716xouqkhDq7r/v7b7nR04lQ3xJ/2659ltW/ecNGC45Y1h3JhdOGDLesB6cXWZ9Q3LKWTwp/YtRBy9owNuKxiXPorcZdsZHHZ71kWU99GOWd82mwu0hWA+z0+q6GkY/PavX006Nn5N/c4Xn8/vH6ABMgEhMpKamLBawzkoRgLpUsibmFOXah5qQJuM+6kbjzG/Mc8x3zHvMf5wHOB5wXOD/kPE2nu/gDeAT4RMcrwC/AMzi/gHfw+hF3EakLMsDSk5LgLTYwmZAS1KmjOjS9HToUT2m0M27D/PlVXhyxbPvc48dlAKhe68Ghdbf2t6yRMVVGTKpqWbfvKrxk8H8s64GtRR6Mv8eylm0Ov2tUO9pKT7s3ssHUpZa1c1bk57NaX0CpyPkeJB9ErZv30B9/bGwT0WzS8MWLq6zJd2u5ctC4icRESkoqq4H1uUtCMJcwpzC3Lvh8zKSUBPMd8x7zH+cBzgecFzg/cJ7I+epqsF28AfwBPKLjE+AV4BfgGbxeRCoidVGZbVNKYrqSICkJ9nBYJsALun37Qr9XSPE0GDWq0v8N6bbp26NHc+sAaPBhn/7rbrGsqStLl08cSwwFBiiWYdaVjxgx/hfL2nI4ssLUq4NdRS6WVOS8JSZVivZLvefzz0ViIiUldWGY6/OQhLhz6d+aixlJSUxXEsx/nAc4H3Be4PzAeYLzJddGp7v4AnhDZ7CBR4BPgFeAX0xXEZGKSGULwA3GID3Ajb8YYfzerl3e54qMKP1l//7Xzu724gNN9u6tOim+1q7ql660pNqWuEU7n7GsTp1adL87xbLmTowcP2QNae4QVHCWwU4HYF9sLXZW952FI4/OnLNnz6iD+U/e+DHsk0RiIiUllVlgnXlJCOYM5k52m4eZ1W6nB7hxXuD8wHmC8wXnDc6fS1caovAD8ATwBfCGjj+AR9ID2KLFlspWgy+zgBtvydSurTqWDlq1Ur1z50Iryz8QPW/s2PI1en3z2LqXXsrxiZNuolebku0mPjjQsib3KfVN/BeWtWhU4fhB3S3rnlJFKg2fQUsuKxqHbx/dhd4iPF+And2Btikx2VAkYsqk+nfcUfVgvv3X5oc2zpSYgFkQiYmUVO45XzKShGAukCQEcwRz5WJJQrJKSnLOgNs9L3B+4DzB+YLzBucPzqMcnzjp4gPgBeAH4AkdXwBvAH8Aj5wvwJZzRSpbAW4wC6VKqQ4gBQP4Bg1URwT4jTeq3q1bkZ+q39r58PTpFSv2ffGJim++me2Bd8uETXuaW50rdu/e8aEHjtbpNvaaAQOu/s/Jhb0Kl+//mtX1zpaFnx/ylWXdX7PI+LhFlvXYe+F1fAEKKMDSi79P5I3TKpLd06UGsNPrT++I6pAa9tln9zcsPCNu29Ch6nUgEhMpqdzLXGdeEoK5gTmS0+bfuQJunA84L3B+4DzB+YLzBufPzf0LlxzQ0rLGvH1NdNJka1r9jjd99OiA4+vs83X1nobW8OwOrIEHgA+AF3T8ADwBfAG8AfwBPAJ8IgBbKkcDbpNxKFFCddjmVK2qOt7KwV+eLVqoDk1Vt24FjpX6qNbTXm+pKS2bTsu/ZEmF5n1HLLNef73Kl/EDdnU/ceKiLVe8HB+18/DJLdee6lXmkdPvHy++punepEGBiHzdozqV//GOuer7neu+RTX3+7rlr/iuQvXHn765QeGoASu+roy3+tY8FNF83Hdk4xT4NHLs9Jq0BJNZDXZOB9jp9R2tokrMHLdrV1LlAlXa3IvXhUhMpKQuXWCdeUkI5gLmxKUy9zILuHE+4LzA+YHzBOcLzhsw3anNr0ru88g3dWp/cMWD5X5d/rV6Pm8Zm++qyKXXbr/naPHoJiu8/bYvuvbpnlMffvPDZVX2x+fZueXk+xftfHXPc5zvOO9x/uvAGvgAeAHnBPAE8AXwBvCH+U6pAGypHA24TZcSMBHwpcRbN/hLs0YN1evWDQ288RfrTTep3qNH3rmFLi/advDg4q80ae9NvvPOMoc6PrZo3pYt5TZ27/1A72efrRDV54/lU954o1LSoIUb6n5mVek5vFCgxM9Wlb3xv+26/9TlVboMswJhx66p1HtQj/VvfT67/Kd9Jiyb81aJcjd263zfuOebl7mm/Us3V95WqtjjDWOHf/PAiiv2FpgasXj0RvXve8ep7nPtgpJ6qj5ykOqjXA3YmIaXv2k/S9+NP+CNLji5bcuNTdaPjzg24evfasM3FQlhpotIbgPYZn/udVdisiEiMOny226r7vARYeXLq+dVJCZSUjnvfDh3SQjue8wBzIVLde5lBLhNlxKcHzhPIC1ZVSDCO7bdb/OGv1jg65YPbW53+Xz7t/H8VHd+TnTP2Qnu9bj3VR8bo/roL664vUCJ8G8mVCwW26DLsFoP97j6x/btFjbcPqBc+a5f3Zv2QtPyB/s0WVb8rRWVOg1qsn7l53urdBj2i//bY9H2+Xp8132n8lXpPjxvoNCxIjh/KxTqc3R5jzcsnM84r3F+4zzH+a6f9zj/TWANvAD8ADwBfAG8Yb4jmt75IOeCVI5kKtKzWwJDgb80y5ZVHXZwuHGwHdyokerYGm7ZUnUsO3TsqHqXLqp37656TxcA9+qleh/3++4bpl/3ftK9dr/PXs+4///n7o3v3sDd67t/WTd2ez23u/9O90fd/8+1Eeo9TfV+7tcZtKvcfZfVKf7+mLfv/zr8ivjSz+95ekjUHXO+sq4MsunLpQA7vf7M3VFDUsZ8+uk9Rws/H1cKA1kkJlJSOec8yLwkBPc57vvcNu/SA9ymLSAi3fd0jPLMfscqePf3RZYMH/3CH9eUv6x4sVfHu8z1sB9UH+xqmAd84p5LP7nn3jr3vLrHPf+2uf09t59wP/6n+/mvun2He566v9c+m9I5X8P08xjnM85rnN84z3G+47zH+Q88AHwAvAD8ADxhSkNMAkbOAalcNWDx1iCWEnCjIPoUf6HirSAkN+GGQ2QqXCxi3L/IY2NVx1IEIlbbtFG9bVu3u9+/+3BY633uje5Gs7bo5H5dd2BFuwCv6R9uH+j+hX1M9WYzVG/u2gp5Jrpf92bV21/rDpiF7gCq1L1zvp8a35wSkfZkxN9Tv/+shQDsTEpMPorqMHPojh2JiQW6tn2jsfuHj0hMpKSyz9zPvCQE9zHua5lzmQPcW4pFvDPl/c9Su+XJd6TRE6muBrmvq1HuFlC90/cukHUBdCuXEGrxsHtOuUA85lb32n1nwfOs+3nuudryTff/dw/ONsluf0Y/T9uF6ectzl+cxzifcV7j/MZ5jvMd5z3Of+AB4APgBeAHvK6EaJHK1QMYgxcvfPylaQJvDGBIBMBcXnONfsNVqaJ69er6jYmkJ9yw9erpvX790I/Xdb/fOm6v9a7qNd2BVWO86tXcQVHVvXGrHHD7Bvfji93/70H367mMQcOnXMDubj+3cb9O5x15j9vP0ok+YXMfuupwn8TlYc9cF3UkZeZvv8mBk4HE5K6ovfOK/f77+qSIYxPfvPXW8mEiMZGSurhz/dwlIbhPcd/iPpa5lsHyeELU3jm//WbhnMj7hf3sHwOT3MU9F9ucdoHybNUbu0vm9Vwge717jl4H6UWC2+91u8t4X1fNPQfjVK/t/jt13tLPy/p5Mne+4jzG+YzzGuc3znOc7zjvcf5jnptECvADXm/AFyINkRLGIwTwNhlvvPWDKFT85YobDlvE0GThxrzWZY4BuHDj4q0ms+Pj+Pzy7vdbzu1l3F76O/fffcH9i9oFziWWut0dVKXmud+XC7jLPa565eXugElzB9IRF3jn0RmBLl2qHsxbq/THcXHLNoa/O/LL/fufv7lo1flXnj4tB04GB9GfUYtSRv3nP/d2KBI5YurAgfqgFomJlFTWz/HMS0JwX+I+lbmVQXfnPs4BnAvq+ewapp8b0S7h08A9j2q5DHWVVPdcG+mek66U8upE9/cy2e2L3O6eT2X2uv2/+nmI87FCnvM7X3E+47zG+Y3zHOc7znuc/8AD6c1teadSSuo8gLfJjJgAHIMcTAn+0sVgxzIEbtyMOj4f/z++XqT7/Ya7vfDv7vfhatwKuW+9FXIHUmFXkx3+mfv13OuSP+gDqwqY81ou4+0yDrApwnZ19+79IvLXbR6fnBxoH1lleg60sfrXJCaFopJndt22LWFcgfWtl+H5FYmJlNT/PqczloTgvsN9KHMpcx1zHnMf54B+LuCcwFyrbZwr5b5yAaz7zmyx193z8h33/PzA/b25DHZhVyJZxJWahB/Xz7+oPBfmfMX5jfPcBNTmO5ACrKWksmCgZxaA4y9a3IgY+LhB8ZYlOm5gs5ufh/8fXw9fH/9ePvf7vdLted236vL+7T7u9vwn3a9rAHX8pY6/4PEXfjX3rTrT9hDLIZ06OT/55Zf37j1vxFW7+k5escKRmKQuFIlJhhKTLlFH5j3+22/rXoyMHPf5LbdUsH+jpQ7geReJiZTM4ayQhOC+wn2G+07mUAbL3u4cx1zHnMfc188B084O5wbmGc6Vosa5U+hP/VzK95f7ez2pn1s43/Ln+XfO18wCapm/UlJZMPAzAuDpAXGz48bNqKf3/5s3+tmeR++XGdd58+hfxzyg8JaYaXuIt9xguA+NW/PmqmOZs0uX6r/nvbZsjfj45TXCnxu15vnnRWKSSYnJxqilqWEff3zXG0VGDH8Vkb0iMZESgH0+khDcR7ivZM5kThKCuY05jrmuz3nMfZwDOBdwTph2djhXgggD41y6PJ1+RZ7scb5mBKhlzkpJXUDgnREQzwiYp9cz+joZfh/n+ZZreraH0LBVdn25MyEx8eePiJ6RkrL1hagG0x/9/HM52DLXt6+IrDHj7q1bR0wt8EGLs8liIjGRyk3AOvOSENwnuG9kjmSuYy5jTmNu63PclIRg7uMcwLmQnp1dZufTZemcW9n1fJU5KiWVjYF4VveLzRhlVmIC+6ROnRwXk7zH+/RZ8PRVq/rNeeIJkZicm8Rk7ZTInuNWLlxY+lHnGEPCGCQm6TJGIjGRygHAOrOSELzOixfHfYD7QiQh5yYJwRzGXMac1ud2piUhF+kdt+x+vkpJSUllOLAysj1MT2ICH9HMS0yuK5k3qsznCQkrfgvfNNr3wgsiMcmkxGRI1LaUkR99tPj2IncMC+vXTz2fIjGRysnMdeYlIXjd4z6QuZA5SQjmLOYu5rA+lzOShGDOZyQJyaydncwbKSkpOQizSGJSu7bqeOsRAQEkMRkQlj8sOiw1ddvVUeVnNPjiCzkoM9e3HYwcOCPZ7x86tGDBli3hFysSE6mcOE+CJSF4XeN1Lvd9JueCO0cxVzFn9bmLOXzWJaS2PrezShIi80RKSkrqAjFQ5y8xWZhy1d39F65c+cz4qL2pYRIckWFiW6moL+eVPn58TZnwJ8bFzZ9/bhKT3MpAyVvRF/Z5PNd3yEgSgtcxXtdyn2cgCXHnJOZmzpKESElJSQngvkgSk+ho1UliUrt23rzlyiUmrlgSvmD0YwcOyMGaSYlJRNTBOW99+OHt/y3yxdCWOHBzm8Qkpy0v5zRgknWSELxO8bqV+zhzHXMRcxJzU5+jmKsiCZGSkpLK4QdrVklMGjVSPVhiMrhtgR9iFs6du218VKEZr375pRy4mXQxiY9cPGPkli2DahSMiRmPA9eUmOT0t4Rzmh1nTrMLy6r7v2RJvA7xupT7NJOSEHfuYQ5iLupzEnMTc1QkIVJSUlKXKPDOPKOluikxueEG1Zs2VZ0kJvn/T701evPJwn/0/3v16n0zo/bOLSgSkwxdTN6L+n3eE7/+uiYQ/tm4CnPnRq6zj9l1OHhzmsQkpwZM5ZQAjKyThOB1htcdXodyX/5zx1zDnMPcwxzU5yLmJOamKQmRpWkpKSmpSwRwn/+BrHp6EhMs+wVLTOo0veKv8l293pXDwseP6ffSS3JQZ64/NSHq9zmvv//+HTeExwyZ2auXej6zq0Yzs4yqCajxesP3D4CMnwuvPzB7WR3pjK+fUyKds25HA68rvM7kvstcxxzDXMOc0+ce5iDmYnqSENnRkJKSksplTHfm32JWHYxrlSqqZywxGXJzgQ9ir5g3b/vRyD9mjjh6VA7wTL41fUvk/hl9n3xySMGCkzz+unXV8/lvvcV8rsDaBH74PgEwoqIAPBrdFL6g6sEKFe6pVrFr0j3Dhy/rVeXhiffeddfK6VUXT923Zs3a36q1n/HN009vnF6jyOxhb7+92V/j2TkDvv02rXyNU6lhJ07gGh/H5+P/x9fD18e/pwMffD/4/kwAbv5Bc6GAd9ZJwvC6wetI7qtMSrvcOYW5hTmmz7X0JCGYi5iTl5okTEpKSkrqIjFk5yExedv+6l/27buoReHPB/y9Zs2+p6PWpS744w854DOQmDxQtNC8a375ZXXHiPJj/5OSoktMLvTSVGbfGTFfL6Y9XPHigx4u/kq7I3XqPPhg5XvH7Jg2DYA4bX7NHqlhf/6ZllazZmqqZV3w7v57+Pfx/eD70wG4acuYEfA+V4CUdUvOeF3gdYLXjdxHGUhC3DmEuYQ5hbmlzzGRhEhJSUlJnRfgvvgSk7rNr/ihfJjPt/LdiFVji738shz8mXQxuaxo5TmH33130eCrkgev69FDPZ9ZJTG57Dz/EAMQBTNcosTMh8q+P6DyjTeu7109bOaGZ5/1j6jZKzXs9OmLBqjPseP7w/eL719/JwE/X0bAOyMAlXWSELwO8LqQ+ySTkhB37mAOYS7pc0okIVJSUlJSF4XpznywhernLjEZ9meBQIuwBQu2l478csaHX30lgCBzSXPbSkZ+PH3xpk19qxb8qvl3YGTPVWJyhft7v9zoeNzUWAdLFUZuKP1o58PR0aumVV0yveLWrdkdWGcWeOPnwc/3z8+vqfE+625i/CFz9nk+Z0kIfs/4vUuSayYlIe5cwZzB3NHn0PlKQiSISkpKSkoqS4H3uUpMypdXPWOJSaEXbbjydt++i34v/OrgeWvXPvNH1ANz8//5pwCGf+7P3qKkAqvujWg5ZsecOVEd7GO/Stmy6nlNT2JSAEDa7XlP6z2f+3ght4fnwdeLXlF4Rp3qVas+0bfalVOiVq1Km1jjjZTkkydzKrDOsLs/H35e/Pz684vXP54vPH958YdLmH6N5z19SQh+j/i94vcsr/sMgmPcuYE5grmCOaPPnfQkIZhbIgmRkpKSkrqogNuUmJiMZ9ZJTOrXv+KzihWTklbfG3HX2NdeeUWARCZdTPxR+VIS33ln0SNXHR70ardu6vmExKSYAZwL/ekCh5/c629dpu5Hl7n7xWXy8iScKDWjw+jYPJuW1bh69swPP7xkgXUGHT+/t2mpAx17eDx4ftzny+1X/eH+QfObe3+gnwz9BwyThLi/N/we5XWduY45gbmBOaLPlayShJjMdXaxg5SSkpKSukSZ7gsvMRlRs8DylhMWLtyxKPLIzHFffy0AI3MSk0CVyD+m7d8Y1j1Q8GijqXXc31/JH1zg/brqUc+41+tUL5HmAo+9qZXKFxg8bljbzeVr+Ob0/6VwbgXYZt9cs8aoOcOOWamnyscOKTx0pXq+rn5Tf14jX3EB2xtu/8x9vo8BoOP3srV+VNT06Rs2iCQkcx1zAHMBc0KfGyIJkZKSkpK6JIH3hZeY3D6o8BODv1u/fp8lEpNQff/pomHzLOr7dkf9nrrgl8JLfgg/nXRszh1F7rR/O+0qDlbP67XXu78HF2hUznv/skqdRz17W5+0AjVmpcw4nU8Adjq9oP38zDyd98FalTaO/uzW/6rnr4L7TkLZ3i4Ad6O5r14c/qf9vJ+6dsvy5IiWozYmL3j25qKF5hY5dvb3JK/fdFxC3Psc971IQqSkpKSkcjHgzqzEJCJC9SyQmNSPSBj716FD/9/emcdVWe1rHJBM5r03qIAKMilDojikgDigMuQAOB2UTMxEjUERCBVlUD9d84hal+pk18B5lig1yglvVp5TJlSnm3ZLT3lLzU6em+d4EuM93LvWo/d9iwty2LA3Pt9/ng+yh/f9/dby87h83rVoTDRGO8zw/Yo8RamqMLxblKUox2cbigu+VZSKar1b7oFP/zP1fduVsa9MPyfq2fdYsaX3tLl26wJppJun665718zLXisjJYHyACL/3KzP7eLiPKbuPdxPv2pp2acd0A/0h0a7gUiInNctGwnB3zuMhBBCCGlXK93Gj5jMGWlTHPnF008f/lx/JK/Dt9/SYKsN9pEEw4jl/6Eoh/6if2tpuKKUr9KH5GxSXP/tkGtm2o9/uPzqD4GLCufWJdI4N1NvBC4uTK0LWLLF7TeJGwvOv5TstDGlvGLDof3695ccV3SoP/pBw62JhMh5i3mMea2e54yEEEIIIRbGi5j4+wttOGLiuNbCotNbiYlr7R3WPXZhz56qkYaiojU//XS/REVO5hjOF91UlBP+hrLCVEU52sUwOT9JUd7I0/8pb1S9IXxOP/CpVxRlj7PLs9kL6392868t8KNRbiktvx5gV+CiTLtTX1lv1B/9QH/QL20f2/2uOXJeYp5i3mIeq+e1NhKCvwcYCSGEEELDbdF2EZO4uMEPWv/e5+vU1B3f6OIXlH/wQXtfyT5xzfB64Q/1hu68YW7+BUWpHK6/kfeeorzWTZ+Uu6PeYH/jPCDrWL0hfLZ31+XnaIyNZrhlfVFv1B/9QH/Qr/tlZRvzEPMS81Q9bxkJIYQQQoyw0m2siElsrNCEhDnbbeaPOrV69RtB+l15L1y+3F6jIm8VG/osn6QoB+fpS5b0V5R9R3R/zLZVlL3FPb9Y8iCNcGsp6o36ox/oT3uPkmCeYd5hHqrnJSMhhBBCSBsYb2NFTMaNc3zc6qJd0bRp64Y4LJlZvXfvyRjziJg0NSpy+LD+zNITilJuo3fMeUFRduV19syarigVOYERhR1ogFvtxElZb9Qf/UB/2luUBPMI8wrzDPNOPQ8ZCSGEEELa0HAbO2ISFSU0Lm7I19bH/b5PS9s5VTd04ewzZ8xtJftYqWFpwWxFedPa8OCysXejCrt361Zn3lKUfX/3CcgbQuPbZgfeyPqjH+gP+oX+mevKNuYN5hHmlXqeMRJCCCGEmMFK971GTDw8hDY1YjJx4rxtNoljfJ555o08fUme45Urpma0tSvZ2l1F9hfqLmevqzdAnl0Tsx6g0TUVRT/QH/QL/WtoZdvkIiFyXmCeYN6o51FjkRDMS0ZCCCGEEBM23i0dMRk1Suj/iZg4OiQk992/v60iJve6kr3rki4n86l6Q3fU99YySxpcU1H0A/0xl5XtO5EQOQ9+PRKCecNICCGEENKODHdjERN7e6GNRUyCgoQ2HjHZFaJzWbjm7Nk2311EZnyxMnpgtK42x6AoO8a65C+8QmNrqor+oF/o353MtonsRoJxfm+REMyjxiIhmJeMhBBCCCFmuNLd0hGTESOE3o2YzD9m5xWVv2ZN5deGl/JKr15trYcfsVvFm6cN7svOKsprF/QZiwPvZoB3RnT3z75OQ2uyERLZnzuZbdk/9BP9be2HIzGOMa4xztXjHvOAkRBCCCGExrsVIiZ6vdVndrOmT9/Q1/HwLPcDB06uds5ZYX/rlrEiI9iHGQehlJ/Rez3lrijbP9L5L0hRlH1/8B2T50hDa7IPR8r+oF/o352DbWR/jR0hwTjFuMU4xrhWj3NGQgghhBBitIiJj49QbcQkIkLo3YjJ0BUda3tvyMjYtUkfnhleXW20yEgf/c4lh+/u07xli7NVRgG38TOXbf/QL/QP/TR2hATjEuMU41Y9jjGutZEQzANGQgghhBBi9IhJcLDQwYOF/jJikvqV7U/R8WvX/s9/zS97o+kRk4Z2GcGBJ9rIyPaD7qOzttLImotue9199KItv4yQoL8ttQsJxh3GIcalepxi3GIcY1wzEkIIIYSQFjPe/2zEJCREaFiY0LsRE+cKq2pHfVLS+kcdNyevLS+vett5VtG/1NY2d5eRiqn66FxvRdnxoi58wdV6PeVhnx1OA2s2D0XKfqF/6Oc/uwsJxhXGGcYdxqF6XGKcYtwyEkIIIYQQoxnulo6YDBwo9JcRk2FjOn4XsHLBgt2d9L0yr9bU3HM2W540uC1WZ5XxmKLsDO75m6fSaGDN5qFI2S/0D/1sblYb4wjjCuNMPe4wDjEuGQkhhBBCSJsZ76ZGTAwGoc2PmKT/3bYm9uq6dZUHDTOWDb7W6HZ+OPhk822n02kf1RstL+/fL95GA2suin6hf9qDbBrLar+53JC57Pi1axg3GEfqcXWvkRCMY0ZCCCGEENJmxtuIEZOlVqcdrj5qsf5Dx8eTp1fEHf3eUJf/420n7UOQe2/qTmY9rSilB5zWp0bV//yZ34S8WTSw5qLo153+yX429FDkiTDnsMKC2x02lDnmJn9TYcFICCGEEELaqeFubsSke3ehjUVMouX3J8weuq9jYUBQVs3mD3XBads+eefgPH3Jkv6KsidD9/KifEV5xc9p/pPDFKV8sv+3+ZtpYM1F0S/0D/1Ef3E0+/ZqXcmCKR9/NexCx6OBezI3iHERL8dHUyMhGHeMhBBCCCHE7Ix3S0dMhsjPjywSOv4FodPzZ4XZRI6o+V1Naa3T2Sf/9kPupllOU+e/RaNtrkYb/cPuI3s6685mVv45f+5Omy/HuJecF32fOk/oWJm9HinHIyMhhBBCCLlvjXdzIyYB8vMGlAkd9ieh46SRSnJ1etnyhs2/L+qTdth2V+yak+f3lvjNzBuprKGRNa/oyMvjnFbPK7v9zuKBdqcTEo5Z6j+xCrfznf+p6PPkk0KjDwodKrPY/eX4YCSEEEIIIfe94b7XiEkP+Tl+R4X2k0ddR7wvdLzMlsyUK5OZN17q5JOSsfa/AmlkzUO35np/k+N180DgLOvZ3U4VzxF9TPlS6JRnhUbNFSoPZrTos0+orxwfzY2E0GATQgghpN0bb6wwaiMmzvJ9bp8I9ZGRgX4pQofnCE24LXTOud+Wec2YM/HszzSy5qFrCrxcZ0fXlIv+pUvDPK1GaHSV0CFyRTpIZrF7vivUVY6PhiIhGFc01oQQQgi57423NmJiL1/ndEMaqx3ScDsJDZEGbbTM4Cb+uajIM+nR148+TSNrHlqQ5nEuadCJl0X/ksOFjpX9Du0iNOC0UI/VQl1+kONCjg87O/W4YSSEEEIIITTcja10y9/b3BKq+6NQtyVCe8mHIwdXS4P22cL0bhMSrpRZ08iah6ZvcS+Lu7hN/kNpooyORMj/oeiDh2XHSoN9SqjD3+S4kOODkRBCCCGEkHs03tby5wfqhNpdEWqolAZsgDRkXkKHR/f1sE/xrpy7tSImcELBNcWXhtY0tSIycHzBZeWhh961O92zLl1GQ8a4Cg0pEer9hdAu8mcH+TBsp1o5LixprAkhhBBCmmW8raTKhUqLjrVqw9VFRkl85Z8P+kBo7LHNG3u5Zr/w5TYaW9PUsi/9vst2vLBb9GvCE0LDpGH2f06o+5NCnWRmu9Nf5XhQpMG2pLEmhBBCCGkWMNodNCvbtj8K1cv9lXsUC31IRg6GH1oR5/ngY5u376WxNU0t/NRj/4z1O9eLfkVeEIqHXD0fE+p8QqjdNfU/tKw144MGmxBCCCGkmcBIIUqC7Dayuq5yv2W/TUIHfxb1W/3W/rNTrGhsTVNHn9cPDgmet1L0K1TuHuMv9+9zk/tmO34n+31b3X8rGmtCCCGEkJY12sjgYlcJO/nnLlI9Lwntu0voSKftyb3tcxdeeI8G1zR0W12vv+YGXBwn+hMpH2YNiROKbfuwqwj621HTf65gE0IIIYQYyWhjdwnsl6yXv++GkwJlpCS0JOUd1+BH1hc8Q6NrGjrnRtefY28WyshI2AyhAfLEx26X1f20tVT3m0abEEIIIcRIRttSs8sE9k3GQSVd5L7LPvJ1OKI7sqp0rN9rWas+nk7D2zZa2tFvS9akjw+JfowqkP2pVverq6W6n+gv+s2HHgkhhBBCjGy4tRESW1uhOCEQR3IHBgoNt4wPNHwR9t/pFhWzAicX1CkWNMCttI1f8v/W2zLuuOHtsC3pJeiH0CDNEeroH/qJ/nIlmxBCCCGklY02IgWdOgl1lPsxd5UHnfj4CO3fX2ikxfNXfX3T0qpotFtJn6/0dU2LrhqB+gsGWKr7g36hf+gnIyOEEEIIIW1kuBEpwMmAOIobK6M9egjFynZoaNBWu609LRITd6/0z1267CoNsZEU9Q2Ktyv2fHuaBeqv7gf6g36hf+inNjJCCCGEEEJayWg3dWXb21tov35Chw+P+VCX+bB1evr+zgE5y+fdvEmD3DK6XxeQvfyJmwrqi3qr649+cCWbEEIIIcREjXZDK9vI+Or1Qrt1E9q7t9BBg4SOGvXEua5Rsa+tWvVqcuDkQou6OhrmZurMwMkFSp2CeqK+6nqj/ugH+oN+NbSSTaNNCCGEENJGhlu7so3dKuzthbq4CPXwEBoUJHTIEKFRUcuf93gx6d3SUhrn5inqh3qq64t6o/7oB/qDfnElmxBCCCHExA03dqvAPttOTkIRVfDyEhocLDQ8XGhMTMFAj4cfDd28+VVdwLKC/J9/ppFuQGV9UC/UT11P1Bf1Rv3RD/SHu4sQQgghhJi40W4sSqLTCXVzE4pdL/r2FTp0qNDY2BlnumaNnrNy5T6d/3fLzt+4QYMtFPVAfVAvdf1QT9QX9Ub9GRUhhBBCCDFTw91QlES7K4m7u1BfX6F4WA+GMSYmvNoxKUifmrrdofe4XOtLl+5Xg437Rz1QH3W9UD/UE/XV7irCqAghhBBCSDs13MgGN2S4sSIbFiY0Ksrt6wdOunhPm7Zupndoyr4jR8rt23e0BPeH+8X9ox7q+qBeDRlsZrEJIYQQQtqZ0W6u4UbkoU8foXioL1KeuDJuXFiww82ASxkZ/3rd+2ia03vvVTxu3ruW4PpxP7g/3K/6/lEP1Af1aq7BptEmhBBCCGnnhhvbzbm6CsVDfDhgZeBAocOGCY2OFhofH7Narx80ZfHijTW+zy3s/dFHpm68cX24Xlw/7kd9f7hf3D/qgfqgXqgfDTYhhBBCCA23yhAiQ4yH9rp0EYpt6Xr1EoqoBFZ2R4wQisxyfHzgCJu/9IybO3eRT7fKSf6bNv1uk09Fxqnq6nL3gNv5P9261WoREPl9+H5cD65Pbaxx/bgf3B/uF/ePeqA+qFdTM9g02IQQQggh95nh1u5SghMLse8zohFYyQ0IEBoS8uvGGyvC48cLnTjRecwDRQ5vz5gx+/OuG2NKi4tXhHhUzigtLy+e4jUlZU9V1Ytf+Z7IiKip2RLb6/Ocwxcv7n7Jf/XSPdevl6cF1BQsr63Fz/g9Xo/34/Pw+fg+fL/6enB9WmON+8H94X5x/6gH6qPdRYQGmxBCCCGEhltlCLXbAuJIcG20BCu53bsLxZHiMKbYfePhh4ViV46RI4XiYcJHHhE6YYLQhAShkyYJnTxZ6JQpQqdOVf+M3+P1eD8+D5+P78P343pwfbheXD/uB/eH+9VGQ1Af7TZ9NNiEEEIIITTc/6/hxkEqiEJg5dbBQSge+oMRxdHiWAFG1AInI8LQ4kjy0FChERFChw8XiocOcYT56NFCx4xR/4zf4/V4Pz4Pn4/vw/fjenB9uF5cP+4H94f7xf2jHqgPDTYhhBBCCGmW8UYUAsYSK7la440V386dheKglh491IbWz0+ov7/a+OIkRRji/v3VOmDAr/85Xo/34/Pw+fg+fD+uB9eH68X1a4017hf3z2gIIYQQQghpUcONlVut8daueCNagaPGsTIMQ4tdOpB5hvH19BTas6faGCPKoVX8Hq/H+/F5+Hx8H74f14Prw/U2tGKN++XKNSGEEEIIaVPjrc14aw04HiLEbh1YSXZ2FoqHDWGMG1O8Hu/H5+Hz8X1aQ63NWNNYE0IIIYQQkzTeTTXgWDGG0bWxURtgbJMHhUHWqvZ1eD8+D5+P72uqoaaxJoQQQgghJmm8GzPgDRlxrcIYN6YNvV9rpJtqqGmsCSGEEEKIWRnvxox4Y8a8IW3sc5p6PYQQQgghhNwXRryllRBCCCGEEEIIIYQQQgghhBBCCCGEEEIIIYQQQgghhBBCCCGEEEIIIYQQQgghhBBCCCGEEEIIIYQQQgghhBBCCCGEEEIIIYQQQggxNf4BRTjQ6YPIyjoAAAAASUVORK5CYII=;fontColor=#000000;imageBackground=none;fontSize=13;strokeWidth=0;" parent="33" vertex="1">
                    <mxGeometry x="314" y="149" width="41" height="41" as="geometry"/>
                </mxCell>
                <mxCell id="99" style="edgeStyle=none;html=1;entryX=0.5;entryY=0;entryDx=0;entryDy=0;entryPerimeter=0;fontSize=14;fontColor=#000000;" parent="33" source="41" target="18" edge="1">
                    <mxGeometry relative="1" as="geometry">
                        <Array as="points"/>
                        <mxPoint x="530" y="282" as="sourcePoint"/>
                    </mxGeometry>
                </mxCell>
                <mxCell id="22" value="" style="sketch=0;points=[[0,0,0],[0.25,0,0],[0.5,0,0],[0.75,0,0],[1,0,0],[0,1,0],[0.25,1,0],[0.5,1,0],[0.75,1,0],[1,1,0],[0,0.25,0],[0,0.5,0],[0,0.75,0],[1,0.25,0],[1,0.5,0],[1,0.75,0]];outlineConnect=0;fontColor=#232F3E;gradientColor=#FF4F8B;gradientDirection=north;fillColor=#BC1356;strokeColor=#ffffff;dashed=0;verticalLabelPosition=bottom;verticalAlign=top;align=center;html=1;fontSize=12;fontStyle=0;aspect=fixed;shape=mxgraph.aws4.resourceIcon;resIcon=mxgraph.aws4.api_gateway;" parent="33" vertex="1">
                    <mxGeometry x="355" y="32" width="61" height="61" as="geometry"/>
                </mxCell>
                <mxCell id="25" value="&lt;font color=&quot;#000000&quot; style=&quot;font-size: 14px&quot;&gt;IAM&lt;/font&gt;" style="sketch=0;points=[[0,0,0],[0.25,0,0],[0.5,0,0],[0.75,0,0],[1,0,0],[0,1,0],[0.25,1,0],[0.5,1,0],[0.75,1,0],[1,1,0],[0,0.25,0],[0,0.5,0],[0,0.75,0],[1,0.25,0],[1,0.5,0],[1,0.75,0]];outlineConnect=0;fontColor=#232F3E;gradientColor=#F54749;gradientDirection=north;fillColor=#C7131F;strokeColor=#ffffff;dashed=0;verticalLabelPosition=bottom;verticalAlign=top;align=center;html=1;fontSize=12;fontStyle=0;aspect=fixed;shape=mxgraph.aws4.resourceIcon;resIcon=mxgraph.aws4.identity_and_access_management;" parent="33" vertex="1">
                    <mxGeometry x="520" y="32" width="64" height="64" as="geometry"/>
                </mxCell>
                <mxCell id="21" value="&lt;font color=&quot;#000000&quot;&gt;&lt;br&gt;&lt;/font&gt;" style="sketch=0;points=[[0,0,0],[0.25,0,0],[0.5,0,0],[0.75,0,0],[1,0,0],[0,1,0],[0.25,1,0],[0.5,1,0],[0.75,1,0],[1,1,0],[0,0.25,0],[0,0.5,0],[0,0.75,0],[1,0.25,0],[1,0.5,0],[1,0.75,0]];outlineConnect=0;fontColor=#232F3E;gradientColor=#F78E04;gradientDirection=north;fillColor=#D05C17;strokeColor=#ffffff;dashed=0;verticalLabelPosition=bottom;verticalAlign=top;align=center;html=1;fontSize=12;fontStyle=0;aspect=fixed;shape=mxgraph.aws4.resourceIcon;resIcon=mxgraph.aws4.lambda;" parent="33" vertex="1">
                    <mxGeometry x="355" y="149" width="61" height="61" as="geometry"/>
                </mxCell>
                <mxCell id="18" value="&lt;font color=&quot;#000000&quot; style=&quot;font-size: 14px&quot;&gt;DynamoDB&lt;/font&gt;" style="sketch=0;points=[[0,0,0],[0.25,0,0],[0.5,0,0],[0.75,0,0],[1,0,0],[0,1,0],[0.25,1,0],[0.5,1,0],[0.75,1,0],[1,1,0],[0,0.25,0],[0,0.5,0],[0,0.75,0],[1,0.25,0],[1,0.5,0],[1,0.75,0]];outlineConnect=0;fontColor=#232F3E;gradientColor=#4D72F3;gradientDirection=north;fillColor=#3334B9;strokeColor=#ffffff;dashed=0;verticalLabelPosition=bottom;verticalAlign=top;align=center;html=1;fontSize=12;fontStyle=0;aspect=fixed;shape=mxgraph.aws4.resourceIcon;resIcon=mxgraph.aws4.dynamodb;" parent="33" vertex="1">
                    <mxGeometry x="355.5" y="300" width="60" height="60" as="geometry"/>
                </mxCell>
                <mxCell id="68" value="" style="sketch=0;points=[[0,0,0],[0.25,0,0],[0.5,0,0],[0.75,0,0],[1,0,0],[0,1,0],[0.25,1,0],[0.5,1,0],[0.75,1,0],[1,1,0],[0,0.25,0],[0,0.5,0],[0,0.75,0],[1,0.25,0],[1,0.5,0],[1,0.75,0]];outlineConnect=0;fontColor=#232F3E;gradientColor=#4D72F3;gradientDirection=north;fillColor=#3334B9;strokeColor=#ffffff;dashed=0;verticalLabelPosition=bottom;verticalAlign=top;align=center;html=1;fontSize=12;fontStyle=0;aspect=fixed;shape=mxgraph.aws4.resourceIcon;resIcon=mxgraph.aws4.dynamodb;" parent="33" vertex="1">
                    <mxGeometry x="30" y="149" width="40" height="40" as="geometry"/>
                </mxCell>
                <mxCell id="69" value="" style="sketch=0;points=[[0,0,0],[0.25,0,0],[0.5,0,0],[0.75,0,0],[1,0,0],[0,1,0],[0.25,1,0],[0.5,1,0],[0.75,1,0],[1,1,0],[0,0.25,0],[0,0.5,0],[0,0.75,0],[1,0.25,0],[1,0.5,0],[1,0.75,0]];outlineConnect=0;fontColor=#232F3E;gradientColor=#F54749;gradientDirection=north;fillColor=#C7131F;strokeColor=#ffffff;dashed=0;verticalLabelPosition=bottom;verticalAlign=top;align=center;html=1;fontSize=12;fontStyle=0;aspect=fixed;shape=mxgraph.aws4.resourceIcon;resIcon=mxgraph.aws4.identity_and_access_management;" parent="33" vertex="1">
                    <mxGeometry x="90" y="149" width="41" height="41" as="geometry"/>
                </mxCell>
                <mxCell id="72" value="" style="sketch=0;points=[[0,0,0],[0.25,0,0],[0.5,0,0],[0.75,0,0],[1,0,0],[0,1,0],[0.25,1,0],[0.5,1,0],[0.75,1,0],[1,1,0],[0,0.25,0],[0,0.5,0],[0,0.75,0],[1,0.25,0],[1,0.5,0],[1,0.75,0]];outlineConnect=0;fontColor=#232F3E;gradientColor=#F78E04;gradientDirection=north;fillColor=#D05C17;strokeColor=#ffffff;dashed=0;verticalLabelPosition=bottom;verticalAlign=top;align=center;html=1;fontSize=12;fontStyle=0;aspect=fixed;shape=mxgraph.aws4.resourceIcon;resIcon=mxgraph.aws4.lambda;" parent="33" vertex="1">
                    <mxGeometry x="31" y="200" width="40" height="40" as="geometry"/>
                </mxCell>
                <mxCell id="73" value="" style="sketch=0;points=[[0,0,0],[0.25,0,0],[0.5,0,0],[0.75,0,0],[1,0,0],[0,1,0],[0.25,1,0],[0.5,1,0],[0.75,1,0],[1,1,0],[0,0.25,0],[0,0.5,0],[0,0.75,0],[1,0.25,0],[1,0.5,0],[1,0.75,0]];outlineConnect=0;fontColor=#232F3E;gradientColor=#FF4F8B;gradientDirection=north;fillColor=#BC1356;strokeColor=#ffffff;dashed=0;verticalLabelPosition=bottom;verticalAlign=top;align=center;html=1;fontSize=12;fontStyle=0;aspect=fixed;shape=mxgraph.aws4.resourceIcon;resIcon=mxgraph.aws4.api_gateway;" parent="33" vertex="1">
                    <mxGeometry x="90" y="200" width="40" height="40" as="geometry"/>
                </mxCell>
                <mxCell id="86" value="" style="edgeStyle=none;html=1;fontSize=14;fontColor=#000000;" parent="33" source="85" target="21" edge="1">
                    <mxGeometry relative="1" as="geometry"/>
                </mxCell>
                <mxCell id="85" value="API Gateway" style="text;html=1;align=center;verticalAlign=middle;resizable=0;points=[];autosize=1;strokeColor=none;fillColor=none;fontColor=#000000;fontSize=15;" parent="33" vertex="1">
                    <mxGeometry x="335" y="100" width="100" height="20" as="geometry"/>
                </mxCell>
                <mxCell id="41" value="Lambda" style="text;html=1;align=center;verticalAlign=middle;resizable=0;points=[];autosize=1;strokeColor=none;fillColor=none;fontSize=15;fontColor=#000000;" parent="33" vertex="1">
                    <mxGeometry x="350" y="220" width="70" height="20" as="geometry"/>
                </mxCell>
                <mxCell id="114" value="&lt;font color=&quot;#000000&quot;&gt;TypeGraphql&lt;/font&gt;" style="text;html=1;align=center;verticalAlign=middle;resizable=0;points=[];autosize=1;strokeColor=none;fillColor=none;fontSize=13;" vertex="1" parent="33">
                    <mxGeometry x="220" y="159" width="90" height="20" as="geometry"/>
                </mxCell>
                <mxCell id="119" value="AWS Arquitecture" style="text;html=1;align=center;verticalAlign=middle;resizable=0;points=[];autosize=1;strokeColor=none;fillColor=none;fontSize=13;fontColor=#000000;" vertex="1" parent="33">
                    <mxGeometry x="20" width="120" height="20" as="geometry"/>
                </mxCell>
                <mxCell id="105" value="" style="edgeStyle=none;html=1;fontSize=13;fontColor=#000000;" parent="1" source="46" target="24" edge="1">
                    <mxGeometry relative="1" as="geometry"/>
                </mxCell>
                <mxCell id="46" value="" style="sketch=0;outlineConnect=0;dashed=0;verticalLabelPosition=bottom;verticalAlign=top;align=center;html=1;fontSize=14;fontStyle=0;aspect=fixed;shape=mxgraph.aws4.illustration_users;pointerEvents=1;labelBackgroundColor=none;fillColor=#FFFFFF;fontColor=#000000;" parent="1" vertex="1">
                    <mxGeometry x="230" y="170" width="60" height="60" as="geometry"/>
                </mxCell>
                <mxCell id="84" style="edgeStyle=none;html=1;entryX=0.5;entryY=0;entryDx=0;entryDy=0;entryPerimeter=0;fontSize=14;fontColor=#000000;" parent="1" source="40" target="22" edge="1">
                    <mxGeometry relative="1" as="geometry"/>
                </mxCell>
                <mxCell id="40" value="&lt;font color=&quot;#ffffff&quot;&gt;Client&lt;/font&gt;" style="text;html=1;align=center;verticalAlign=middle;resizable=0;points=[];autosize=1;strokeColor=none;fillColor=none;fontSize=15;fontColor=#000000;" parent="1" vertex="1">
                    <mxGeometry x="400" y="240" width="50" height="20" as="geometry"/>
                </mxCell>
                <mxCell id="43" value="&lt;font color=&quot;#ffffff&quot;&gt;Users&lt;/font&gt;" style="text;html=1;align=center;verticalAlign=middle;resizable=0;points=[];autosize=1;strokeColor=none;fillColor=none;fontSize=15;fontColor=#000000;" parent="1" vertex="1">
                    <mxGeometry x="235" y="240" width="50" height="20" as="geometry"/>
                </mxCell>
                <mxCell id="24" value="" style="sketch=0;points=[[0,0,0],[0.25,0,0],[0.5,0,0],[0.75,0,0],[1,0,0],[0,1,0],[0.25,1,0],[0.5,1,0],[0.75,1,0],[1,1,0],[0,0.25,0],[0,0.5,0],[0,0.75,0],[1,0.25,0],[1,0.5,0],[1,0.75,0]];outlineConnect=0;fontColor=#232F3E;gradientColor=#F54749;gradientDirection=north;fillColor=#C7131F;strokeColor=#ffffff;dashed=0;verticalLabelPosition=bottom;verticalAlign=top;align=center;html=1;fontSize=12;fontStyle=0;aspect=fixed;shape=mxgraph.aws4.resourceIcon;resIcon=mxgraph.aws4.mobile;" parent="1" vertex="1">
                    <mxGeometry x="395" y="170" width="60" height="60" as="geometry"/>
                </mxCell>
                <mxCell id="78" value="Plaid" style="shape=image;verticalLabelPosition=bottom;labelBackgroundColor=none;verticalAlign=top;aspect=fixed;imageAspect=0;image=data:image/png,iVBORw0KGgoAAAANSUhEUgAAAOEAAADhCAMAAAAJbSJIAAAAgVBMVEURERH///8AAAANDQ3V1dXS0tILCwuhoaGcnJz39/f09PSkpKRhYWEGBgZbW1vPz88oKCgyMjLn5+dqamqQkJC2trbh4eGWlpbb29sbGxvt7e0mJiY8PDyrq6uFhYVkZGTBwcF0dHR8fHzFxcVxcXFBQUE1NTVUVFQXFxdOTk5GRkYtKW1mAAAQsUlEQVR4nO2de1/iSBOFISgKine8oCCKjuN8/w/4poOETrrq1KlO2Hd3f9t/zkjoh5NOV+rWg+G/fQz+3xM4+PiP8J8/DkR4v/T9/froMPMYHoTwZv42KIpzz0dOiqJ4Xd73P5dh74SL+dtVOdvxYFBc8J86KQaDUfmxp4/5Y7/zGfZKuJi/P23pqsEjBsBqjIsDaNkT4XT9/iui2yKSN2oNWI1Ky9vlTT/zGvZCON2srstpzQbtwal4WiQfrLR8m/dD2ZVwc/cp0tEqnqSAtZZX7/NFx/l1IpxcPvwJdCN5ipyKGmCt5fVq3Y0yl/Do9DvcSmB6FKJwiwqUv1abSeY88wgfTy4CHdCORYQK7ses/LY/d5d5lF7Cx7Nzms5EtBWMrhMoHy4PS3i/vB246AxED2AY4eFTfJ06DTyW8Gb+UbQ3vI6IXsA95cWJw/RhCH9MMad2FmIWYE05OmdNH4twsX7/naldhPjVJ2BNWdwylIhwul4lplgmYqJiR8Ca8vnDMn00wtIUe9GNFfdoI/YBWI2wXT5B00ckfESmWN5oIvYGWI1AebVaewhfoCmWN2LEfgGrUVJOecJJ/xMYxIgHAAzX3/CEm4PMoH6iHgZwUNzxhHcdpjACC3iLqAKijxJj9skTvmR+z2jrhHi80hgCogo4Lo4v77o8vwvZMhcIp/nW1FllTU10xHMAuP3sdpfKsg7lp6lA6F6GiUU8fVYRdcDo4+vVVYaWxYolXHkIt3QPx63bQEVURgxYjYXfnppds4RX9GX1dzYn4qgN+EP5/uyhLETLJiXkluEovHd/P6jv3dMnB2L5kFEuE5ywVyylvBBTwrU9tUD3aXgVHIiygjHlG6Vl8c4RvuOZbek2iokUIw5IRKDgfmyDIZhyfMURXsNn2OiF9nuRKo4YwC3l8uMa2sviQkwIF3Ba8o2gjMWYQOQBw8A7WTFnCOd4VsqmoyD+NhH7BBwUbwyhsQxVA1dGHBlX8wLilzpxISaEA+uR5UPEj5t+Acu5CR6NNuGNvXT6U9EHeGl7+6SF2CY0lmEG4pN6U4wKjwvbVrCc2YdN+ME84V2I+tumK9bPAJa/mU2o/+KNuT3QM0Nv9MUtfRniFq2umC7EFuE9aYfQiA94A2MRKQXDBdMslxbhkjUmSUQMSCOSCorXaxHe0uYyhWgBkog04GD82yJ0+EmL0x4AKUQesLxcEsloEj4KUxprlzcRGUACUQcUnorpQmwSngmZHy/qFxiIHKCJqAMWnyliugM1CV/TSRVnR3mILKCBCACXwi2X7ohNQuFqxSP6Eh2RB4SI4LvPyvkK/9wODzcItd8EfM1JD4DlZV6zAIff0j2HCIXkj208xY3oA1RVNAAlgykJxjYIL9SfxPoqFnCkGYUiovnDHhMLsUEoL0Puy+KhGtujme7wT29U+2edSDNuOe5iwiP0izhU1AGL44nqnkpUPCZ+1C/hrms9/WJC6a7e/7I0IgC8hDGNporU90lTbiV+xITSDxJNnkRECob/JxEZBY3bLiWUdpfYzEObb/1H+kNm90av+1EjRA5QfnQ0PQcR4aX5exCIloKkiiyg+PhvvvVEhMKv3179JiJegzWiruKFD1Dcwr81wj/CH7ctdQNRDT22vGpAxYsKUN0221uT9DbUvPH2hOLekrxtQUROQVPFIx6QWIh7QmEZjp+SCyJEYU3sABO/6BSkM7hMRGkhNlyBe0JBANGU0p1CtIIVon6jut5khIXYzDvZEwo5JoLnauhzKqiAGbF+2cgX34fi6GZNKKV6pcswA1F13TsRtXdRaSHGCWA1oRC4kjzIP3/LIwLX/cSDqL6JSn6JOARYEwoPeikKsB28ijD4oj9ueEDJtzR7kQilZSiFVLeDVdGILulvGu2p6O4ScUeMFuKOUMoxkaJxu8GpaIbPSBWhy0taiFHeyY5QyDEZP6O5MSoS8UE9B44FtBbijlBahm9wbraKVAB0cm17/tU1WA0h1hIngO0InwXnqr4MKUQqT4ZAtHzrUrwsyjv5IZRyTNAyJBBJQBNRdHU1xm+ozg+hENwezcy5IUQrlYtFNG7RMISAWZT380Mo5JgwyUGCN6/+uKcq+0WNPNsKigsxirL9EF77l2EYICOcCL7VQ4+M6N7waOCFuCUUl6FdnApT3nlE/YV3kLrOpCHtiLU+W0JhGY7ljFsakEeEgIKbPh1CAsl+q9sSZi1Ds2iBQ9Tf6GlEaSHWCWBbQvy8zQTkEHWnE48oJXLVe91A/QtjGVJlJzYieMg4EJG9UhFmLEOyrsZCNNYgiyitst2rX0UorFRjw6YLhzAipaCNOBU2u/r1vSKUkhqSCogsQIxIrEEGUXZN7lwwgVBO9RrrVomr9EtHJG9RC1Hxve7caIFQSfVSVXTWtmmWpQtQR9ScyztXaCA8V2asqOgu3pNVdAJqiKr3fFzsCdWAmIgIXPceXzVw3auuYiEfFTiWv/aEqCYwQVQBx8Vcn3SiIgi+3KnRgVRFM4q1s2l4RAB4NHykQypAwZWYJvPzny0VjRhWREgjQsAhjYgUDP9PIhIK7v00HKIByCJiBcMQYpkpIlAw+qvaI8wgmoAcIgCs42IEIgcYxZ4A4j0NGMwHC5EBRIivLsA4ym2pSAFCFc94wOHwEwOAEGvzcWRkDEWIJKClIgtoqMgq2MprA4g3wCxoG3dAxSX4v6RM5UVHRAXxras0M2jV3ltjqsycUFG3e4Tcf/1G1fs2GFnQ/p4VsnmuI2pDLjRSVVQvkxp27aogsoPabmjvH15ErXrDiShZrkn9oQtRf032IerlKS5EsVQsrXR2ICI/gAcR+QF+OdwJYi2c0FOBRoSODgciLDCa0CoqxX5S9xYSEQPyiJY/zg6hIkC5T5SQ3uAHZBFNn+qEulHVck25mxmhog0YEO0OLIRfnIn16/WoSr82U0UGkEEkAqBMrB8U3God6QwVOUAbkYxPWSqiimK1qyBUkQW0ECkFbURYMq33TQSIjhh9iaj7tWnA4LjXfykcJwadIfWKWTkrUxl6LwtHKTeqwR6N4AcPruHNTN8yPBpe9a4hXIeOnjJ4HRKZFtU4wDo0tgsWEQPSKloJfhnPUnM/5BAtQHY/NLd8935I2DQMog3I2TRELrHTpqHsUhuRASRUpBI0fXYpBWg3X+EATUQ2G9zxbkG/H2IVWUADkcg/xYid3vGRijwgRORuUYTYzU+jI3oAweOGV1BF7Ohr0xB9gKqKPkDK1+b2l8qIXkBFRc8t+nMZy1+qKjhSfd4S4s1MdUl7Yv26gtk+bxSaUbsPpYi6gjBu0VYRxCZy4xYA8Ajq20QEgDj21EQECubGnjAgMASaiADQih/GiJZKtIpEDLh+G6RUXEAFaUSsYBhsiJSJ49evu4SKN2OsIIkIAOvpkyoSuRjR+7yp4o2e0BS97JqIDCD7V3Y+TcNhAVTcVAoygGY5Ojd1qGI7n4YFNBA5BQ0VT2hA+FM0c6J4QHijLvUUpWQ7Ryrqwe0kr41Q0chNFHxqQEWcZkKryNsrUMUoN1HPLxWdhk7jXDOrzTqL5DLiy5GKGOeXenOESR9APTPFZehE1HKENcQ4R1jL81bdvi4V9ddbF6Ke560gxnne/lx9h4rIRdFTrr6MGOfqZ9Rb0IjYzcTXW8CGvBOh1L5ZbyFVRhk1MySi5SrsqWZG6lrSqJnJqXuiEG2Pdj91T6hdgl67pp2B5UBkXPZ91K7BdglbwjdBZbP+0ETkwi491B9K7RJa9Yd5NaTGpvHX1ZDCdgmd6oAhIh/+xHXAxLHJsF1Ct1pugPgX1nJjfbrV40udU3Yf/+vq8aU1tvfO6D0VxjgBYAv4t+ipgOVBfTGshaj7PqtfiEXs3BdDOKAq7YuR09vEesyTiHZvE0NFQ538/jRYQRqR6U+DVRRWmNSfxt1jiHn1IRC5HkNQRclcEXoMeftE2QqGYT5uyPAZVNEwOTN7fbEvr0YbHrpjG0AUXxuEXl++fm382zlU0dOvTUWU2kT9iv4/q+eex/0AVPT13NMQpcYmYs89R99EnwtJVdGhYDUZ5XEjuGDkvol870uvG1BJSvH3vhRVFNxoSu9Lun8pcOV6EHP6l0oqSsswbpvo70ELAD09aIE7/tvVw19q9KX0oOX6CIN4w0o/8CtBzO0jnCIKh8RofYSpXtDgvJLw/GIR83tBtxHFzpeNIyh9/byhgkMakejnzSIKziK9n7fdk91QkEWkerKTiEJUSe/JbvbVB53S91usjdi1r34D0dVX3zobgQK0EcmzEcD9Es1J7ATdPAmWP9+CBISInvMtqBvVbqvPn1FCA2IVHWeUMCo6zyhB58w4ABGi65wZYi1KM25tvd3PCpKOz9URXWcFmVu/+6wg9bwnl4IQ0QNor0X3eU8ZZ3ZpByD7EFXPtoEondnVNs+Zc9fcCnoRQREbRpR2cHjummghLAlLphsirNIDP2/O2XnO8w/xGd0solGGCH7gjPMPfWdYWoeQc4hmnaV+o0pnWCbvV61cfc85pPYp69QB0XYhKZ2xMZDeaFuEjrNkmWPkbUSqUpbPu7HPkuXPA2YAAyKeG1kKTDu/7POA6TOdOUBLRbrWmW0jaZ/pzJ7LzQJiREcxN5talHp424Tc2eo8IEJ0na1OITJnq1OPPw/g8FMtgbJKNNuI9uNGirS0CaVIThdA2HrFh0hsGlK0LKk/VN9vsgCNJkh9qyhFPBNCIbEhH9BsntMv4j7VCxEaC7FPBXtHFDMPEkIpsyG6BpFGVA8qhO1DFHy68eykoHVa6QzapIQJvdxtJsJ1JECuERmPeHTy9RtrKGUApYTGQpwVRfHn7tKmpGt4KcTHs/Pyi/FNKi5DgVDIO0l+q3J8P+CWCqSCDGJJN7boqmmJSygllPJOpFmV4+tUTUNwVWEDxPvlraldTSimNQs9FYQ0MUB5cSIlITrLzGXEkm7G0lWEYiKeQKgeCKtSvp61DF5vHX2KWNI9eegGzVQvTKg3dlKnV47b5d6eACFsGNP4GTfzj3BFdwtUeasWCLmFmMywKJ7f5gusYHEOqo0rxMX87dmpXX1xubpA6t4i5J1QIzzwnt7XN+AgXFhQvVm/DzK0q68u72ASoft4h2gESrV+sKoI1BtTdKAbtM/IxYTuhciNXcmju/cGeXmxE7FMKCWA9TCDOmRyGMRGqpdBOHwpHH5TdgJRTOgAiOXqUAxJkfDx7hMsp6zRDHr1ixjW/tVKq9PSOtJNN3cvPVK2o3q9IW6f33NQVgA6Qw4nm9Wvbs+33UhLe/pAjPfgPMIwFuvVU2dKqXapI+K4sqPm1lGpBGFFOX+/yrQzVMAuiEG7wetSTu/NIgzjZv42ztRSqz7LQqxs4PMzR1EVSxhGhr0PAP2tC8DbWk+EW8pX+o10Cwhc9x4VK7/CKds2tQNhGIzPpJ4YLJDkVBzNKq8J4RvqizCMx5OvQGkCGsEXW8VA93nn8Ti2Ri5hGMenX4aWdokrVDHQvaw2U+sicHQhDOPy4Y9u+jAlrhpieHJfr9bd6MLoSjgMBt7qWqTk4oMCYrUvQVPMMXogDGO6fk8MPDYA2kQMW8LTB2OskKMnwjBK0yc28PgIb41YmWK0sUKOHgnDWMzfrraUnhB2QPzRzrmdE6NnwjBKA6/cnz0x+hKxf+124wCEYdx7Ou+XY823sfeOAxH+jcZ/hP/88e8n/B/ki/rMm2vPZwAAAABJRU5ErkJggg==;fontColor=#000000;fontSize=14;" parent="1" vertex="1">
                    <mxGeometry x="560" y="170" width="60" height="60" as="geometry"/>
                </mxCell>
                <mxCell id="115" value="&lt;font color=&quot;#000000&quot;&gt;Services&lt;/font&gt;" style="outlineConnect=0;gradientColor=none;html=1;whiteSpace=wrap;fontSize=12;fontStyle=0;strokeColor=#879196;fillColor=none;verticalAlign=top;align=center;fontColor=#879196;dashed=1;spacingTop=3;labelBackgroundColor=default;" vertex="1" parent="1">
                    <mxGeometry x="60" y="390" width="130" height="150" as="geometry"/>
                </mxCell>
            </root>
        </mxGraphModel>
    </diagram>
</mxfile>